<svg width="80" height="80" viewBox="0 0 80 80" fill="none" xmlns="http://www.w3.org/2000/svg">
<path d="M43.3333 46.6667H30C29.116 46.6667 28.2681 47.0179 27.643 47.6431C27.0179 48.2682 26.6667 49.116 26.6667 50.0001C26.6667 50.8841 27.0179 51.732 27.643 52.3571C28.2681 52.9822 29.116 53.3334 30 53.3334H43.3333C44.2174 53.3334 45.0652 52.9822 45.6904 52.3571C46.3155 51.732 46.6667 50.8841 46.6667 50.0001C46.6667 49.116 46.3155 48.2682 45.6904 47.6431C45.0652 47.0179 44.2174 46.6667 43.3333 46.6667ZM56.6667 13.3334H52.7333C52.0456 11.3883 50.7731 9.70341 49.0902 8.50988C47.4073 7.31634 45.3965 6.67255 43.3333 6.66675H36.6667C34.6035 6.67255 32.5927 7.31634 30.9098 8.50988C29.2269 9.70341 27.9544 11.3883 27.2667 13.3334H23.3333C20.6812 13.3334 18.1376 14.387 16.2623 16.2623C14.3869 18.1377 13.3333 20.6813 13.3333 23.3334V63.3334C13.3333 65.9856 14.3869 68.5291 16.2623 70.4045C18.1376 72.2799 20.6812 73.3334 23.3333 73.3334H56.6667C59.3188 73.3334 61.8624 72.2799 63.7377 70.4045C65.6131 68.5291 66.6667 65.9856 66.6667 63.3334V23.3334C66.6667 20.6813 65.6131 18.1377 63.7377 16.2623C61.8624 14.387 59.3188 13.3334 56.6667 13.3334ZM33.3333 16.6667C33.3333 15.7827 33.6845 14.9348 34.3097 14.3097C34.9348 13.6846 35.7826 13.3334 36.6667 13.3334H43.3333C44.2174 13.3334 45.0652 13.6846 45.6904 14.3097C46.3155 14.9348 46.6667 15.7827 46.6667 16.6667V20.0001H33.3333V16.6667ZM60 63.3334C60 64.2175 59.6488 65.0653 59.0237 65.6904C58.3986 66.3156 57.5507 66.6668 56.6667 66.6668H23.3333C22.4493 66.6668 21.6014 66.3156 20.9763 65.6904C20.3512 65.0653 20 64.2175 20 63.3334V23.3334C20 22.4494 20.3512 21.6015 20.9763 20.9764C21.6014 20.3513 22.4493 20.0001 23.3333 20.0001H26.6667V23.3334C26.6667 24.2175 27.0179 25.0653 27.643 25.6904C28.2681 26.3156 29.116 26.6667 30 26.6667H50C50.8841 26.6667 51.7319 26.3156 52.357 25.6904C52.9822 25.0653 53.3333 24.2175 53.3333 23.3334V20.0001H56.6667C57.5507 20.0001 58.3986 20.3513 59.0237 20.9764C59.6488 21.6015 60 22.4494 60 23.3334V63.3334ZM50 33.3334H30C29.116 33.3334 28.2681 33.6846 27.643 34.3097C27.0179 34.9348 26.6667 35.7827 26.6667 36.6667C26.6667 37.5508 27.0179 38.3987 27.643 39.0238C28.2681 39.6489 29.116 40.0001 30 40.0001H50C50.8841 40.0001 51.7319 39.6489 52.357 39.0238C52.9822 38.3987 53.3333 37.5508 53.3333 36.6667C53.3333 35.7827 52.9822 34.9348 52.357 34.3097C51.7319 33.6846 50.8841 33.3334 50 33.3334Z" fill="#005A8D"/>
</svg>
