<svg width="80" height="80" viewBox="0 0 80 80" fill="none" xmlns="http://www.w3.org/2000/svg">
<path d="M46.6667 36.6667H43.3333V23.3334H50C50.8841 23.3334 51.7319 23.6846 52.357 24.3097C52.9821 24.9348 53.3333 25.7827 53.3333 26.6667C53.3333 27.5508 53.6845 28.3986 54.3096 29.0238C54.9348 29.6489 55.7826 30.0001 56.6667 30.0001C57.5507 30.0001 58.3986 29.6489 59.0237 29.0238C59.6488 28.3986 60 27.5508 60 26.6667C60 24.0146 58.9464 21.471 57.0711 19.5957C55.1957 17.7203 52.6522 16.6667 50 16.6667H43.3333V10.0001C43.3333 9.11603 42.9821 8.26818 42.357 7.64306C41.7319 7.01794 40.8841 6.66675 40 6.66675C39.1159 6.66675 38.2681 7.01794 37.643 7.64306C37.0179 8.26818 36.6667 9.11603 36.6667 10.0001V16.6667H33.3333C29.7971 16.6667 26.4057 18.0715 23.9052 20.572C21.4048 23.0725 20 26.4639 20 30.0001C20 33.5363 21.4048 36.9277 23.9052 39.4282C26.4057 41.9287 29.7971 43.3334 33.3333 43.3334H36.6667V56.6668H30C29.1159 56.6668 28.2681 56.3156 27.643 55.6904C27.0179 55.0653 26.6667 54.2175 26.6667 53.3334C26.6667 52.4494 26.3155 51.6015 25.6904 50.9764C25.0652 50.3513 24.2174 50.0001 23.3333 50.0001C22.4493 50.0001 21.6014 50.3513 20.9763 50.9764C20.3512 51.6015 20 52.4494 20 53.3334C20 55.9856 21.0536 58.5291 22.9289 60.4045C24.8043 62.2799 27.3478 63.3334 30 63.3334H36.6667V70.0001C36.6667 70.8841 37.0179 71.732 37.643 72.3571C38.2681 72.9822 39.1159 73.3334 40 73.3334C40.8841 73.3334 41.7319 72.9822 42.357 72.3571C42.9821 71.732 43.3333 70.8841 43.3333 70.0001V63.3334H46.6667C50.2029 63.3334 53.5943 61.9287 56.0948 59.4282C58.5952 56.9277 60 53.5363 60 50.0001C60 46.4639 58.5952 43.0725 56.0948 40.572C53.5943 38.0715 50.2029 36.6667 46.6667 36.6667ZM36.6667 36.6667H33.3333C31.5652 36.6667 29.8695 35.9644 28.6193 34.7141C27.369 33.4639 26.6667 31.7682 26.6667 30.0001C26.6667 28.232 27.369 26.5363 28.6193 25.286C29.8695 24.0358 31.5652 23.3334 33.3333 23.3334H36.6667V36.6667ZM46.6667 56.6668H43.3333V43.3334H46.6667C48.4348 43.3334 50.1305 44.0358 51.3807 45.286C52.631 46.5363 53.3333 48.232 53.3333 50.0001C53.3333 51.7682 52.631 53.4639 51.3807 54.7141C50.1305 55.9644 48.4348 56.6668 46.6667 56.6668Z" fill="#009AF2"/>
</svg>
