<svg width="40" height="40" viewBox="0 0 40 40" fill="none" xmlns="http://www.w3.org/2000/svg">
<path d="M26.1833 21.1834C27.8173 19.8978 29.01 18.1349 29.5954 16.1399C30.1808 14.145 30.1299 12.0172 29.4496 10.0525C28.7694 8.08783 27.4938 6.38403 25.8001 5.17814C24.1065 3.97224 22.0791 3.32422 20 3.32422C17.9209 3.32422 15.8935 3.97224 14.1999 5.17814C12.5062 6.38403 11.2306 8.08783 10.5503 10.0525C9.87013 12.0172 9.81918 14.145 10.4046 16.1399C10.99 18.1349 12.1827 19.8978 13.8167 21.1834C11.0168 22.3051 8.57381 24.1656 6.74815 26.5666C4.92249 28.9675 3.7826 31.8189 3.44999 34.8167C3.42592 35.0356 3.44519 35.2571 3.5067 35.4685C3.56822 35.6799 3.67077 35.8771 3.80851 36.0489C4.08669 36.3959 4.4913 36.6181 4.93333 36.6667C5.37536 36.7153 5.81859 36.5864 6.16554 36.3082C6.51248 36.03 6.73471 35.6254 6.78333 35.1834C7.1493 31.9254 8.70281 28.9164 11.147 26.7314C13.5912 24.5463 16.7548 23.3384 20.0333 23.3384C23.3118 23.3384 26.4754 24.5463 28.9196 26.7314C31.3638 28.9164 32.9174 31.9254 33.2833 35.1834C33.3286 35.5929 33.5241 35.9711 33.8318 36.2451C34.1396 36.519 34.538 36.6692 34.95 36.6667H35.1333C35.5702 36.6164 35.9695 36.3955 36.2443 36.0521C36.519 35.7087 36.6469 35.2706 36.6 34.8334C36.2658 31.8271 35.1198 28.9684 33.2847 26.5637C31.4497 24.1591 28.9949 22.2992 26.1833 21.1834ZM20 20C18.6815 20 17.3925 19.6091 16.2962 18.8765C15.1999 18.144 14.3454 17.1028 13.8408 15.8846C13.3362 14.6664 13.2042 13.326 13.4614 12.0328C13.7187 10.7396 14.3536 9.55168 15.2859 8.61933C16.2183 7.68698 17.4062 7.05205 18.6994 6.79481C19.9926 6.53758 21.333 6.6696 22.5512 7.17418C23.7694 7.67877 24.8106 8.53325 25.5431 9.62958C26.2757 10.7259 26.6667 12.0148 26.6667 13.3334C26.6667 15.1015 25.9643 16.7972 24.714 18.0474C23.4638 19.2977 21.7681 20 20 20Z" fill="#009AF2"/>
</svg>
