<svg width="40" height="40" viewBox="0 0 40 40" fill="none" xmlns="http://www.w3.org/2000/svg">
<path d="M20.5 20.3666C21.3893 19.5968 22.1026 18.6447 22.5915 17.575C23.0803 16.5052 23.3333 15.3428 23.3333 14.1666C23.3333 11.9564 22.4554 9.83683 20.8926 8.27403C19.3298 6.71123 17.2101 5.83325 15 5.83325C12.7899 5.83325 10.6702 6.71123 9.10744 8.27403C7.54464 9.83683 6.66667 11.9564 6.66667 14.1666C6.66666 15.3428 6.91967 16.5052 7.40854 17.575C7.89742 18.6447 8.61071 19.5968 9.5 20.3666C7.1669 21.4231 5.18744 23.1291 3.7983 25.2808C2.40916 27.4325 1.66912 29.9388 1.66667 32.4999C1.66667 32.9419 1.84226 33.3659 2.15482 33.6784C2.46738 33.991 2.89131 34.1666 3.33333 34.1666C3.77536 34.1666 4.19929 33.991 4.51185 33.6784C4.82441 33.3659 5 32.9419 5 32.4999C5 29.8478 6.05357 27.3042 7.92893 25.4289C9.8043 23.5535 12.3478 22.4999 15 22.4999C17.6522 22.4999 20.1957 23.5535 22.0711 25.4289C23.9464 27.3042 25 29.8478 25 32.4999C25 32.9419 25.1756 33.3659 25.4882 33.6784C25.8007 33.991 26.2246 34.1666 26.6667 34.1666C27.1087 34.1666 27.5326 33.991 27.8452 33.6784C28.1577 33.3659 28.3333 32.9419 28.3333 32.4999C28.3309 29.9388 27.5908 27.4325 26.2017 25.2808C24.8126 23.1291 22.8331 21.4231 20.5 20.3666ZM15 19.1666C14.0111 19.1666 13.0444 18.8733 12.2221 18.3239C11.3999 17.7745 10.759 16.9936 10.3806 16.08C10.0022 15.1664 9.90315 14.161 10.0961 13.1911C10.289 12.2212 10.7652 11.3303 11.4645 10.6311C12.1637 9.93179 13.0546 9.45559 14.0245 9.26266C14.9945 9.06973 15.9998 9.16875 16.9134 9.54719C17.827 9.92563 18.6079 10.5665 19.1573 11.3887C19.7068 12.211 20 13.1777 20 14.1666C20 15.4927 19.4732 16.7644 18.5355 17.7021C17.5979 18.6398 16.3261 19.1666 15 19.1666ZM31.2333 19.6999C32.2999 18.4988 32.9967 17.015 33.2397 15.4272C33.4827 13.8393 33.2615 12.215 32.6029 10.7499C31.9443 9.2848 30.8763 8.04124 29.5275 7.16896C28.1786 6.29667 26.6063 5.83282 25 5.83325C24.558 5.83325 24.1341 6.00885 23.8215 6.32141C23.5089 6.63397 23.3333 7.05789 23.3333 7.49992C23.3333 7.94195 23.5089 8.36587 23.8215 8.67843C24.1341 8.99099 24.558 9.16659 25 9.16659C26.3261 9.16659 27.5979 9.69337 28.5355 10.6311C29.4732 11.5687 30 12.8405 30 14.1666C29.9976 15.042 29.7655 15.9014 29.3268 16.659C28.888 17.4165 28.2581 18.0456 27.5 18.4833C27.2529 18.6258 27.0465 18.8294 26.9006 19.0745C26.7547 19.3196 26.6741 19.5981 26.6667 19.8833C26.6597 20.1662 26.7249 20.4462 26.8561 20.697C26.9873 20.9478 27.1802 21.161 27.4167 21.3166L28.0667 21.7499L28.2833 21.8666C30.2923 22.8195 31.9872 24.3266 33.1683 26.2104C34.3494 28.0943 34.9676 30.2765 34.95 32.4999C34.95 32.9419 35.1256 33.3659 35.4382 33.6784C35.7507 33.991 36.1746 34.1666 36.6167 34.1666C37.0587 34.1666 37.4826 33.991 37.7952 33.6784C38.1077 33.3659 38.2833 32.9419 38.2833 32.4999C38.297 29.9423 37.6564 27.4237 36.4224 25.1834C35.1885 22.943 33.4022 21.0554 31.2333 19.6999Z" fill="#009AF2"/>
</svg>
