<svg width="80" height="80" viewBox="0 0 80 80" fill="none" xmlns="http://www.w3.org/2000/svg">
<path d="M67.0333 58.2998L50 29.0998V13.3332H53.3333C54.2174 13.3332 55.0652 12.982 55.6904 12.3569C56.3155 11.7317 56.6667 10.8839 56.6667 9.99984C56.6667 9.11578 56.3155 8.26794 55.6904 7.64281C55.0652 7.01769 54.2174 6.6665 53.3333 6.6665H26.6667C25.7826 6.6665 24.9348 7.01769 24.3096 7.64281C23.6845 8.26794 23.3333 9.11578 23.3333 9.99984C23.3333 10.8839 23.6845 11.7317 24.3096 12.3569C24.9348 12.982 25.7826 13.3332 26.6667 13.3332H30V29.0998L12.9667 58.2998C12.0818 59.8189 11.6131 61.5444 11.6076 63.3024C11.6022 65.0604 12.0603 66.7887 12.9358 68.3132C13.8113 69.8377 15.0732 71.1044 16.5943 71.9858C18.1154 72.8671 19.842 73.3318 21.6 73.3332H58.2667C60.0247 73.3318 61.7512 72.8671 63.2723 71.9858C64.7935 71.1044 66.0554 69.8377 66.9308 68.3132C67.8063 66.7887 68.2644 65.0604 68.259 63.3024C68.2536 61.5444 67.7849 59.8189 66.9 58.2998H67.0333ZM36.2 31.6332C36.494 31.1382 36.6548 30.5754 36.6667 29.9998V13.3332H43.3333V29.9998C43.3394 30.5868 43.5004 31.1617 43.8 31.6665L46.6667 36.6665H33.3333L36.2 31.6332ZM61.2667 64.9665C60.9758 65.4703 60.5582 65.8892 60.0553 66.1816C59.5524 66.474 58.9817 66.6297 58.4 66.6332H21.7333C21.1516 66.6297 20.581 66.474 20.0781 66.1816C19.5751 65.8892 19.1575 65.4703 18.8667 64.9665C18.5741 64.4598 18.4201 63.885 18.4201 63.2998C18.4201 62.7147 18.5741 62.1399 18.8667 61.6332L29.4333 43.3332H50.6L61.2667 61.6665C61.5592 62.1732 61.7132 62.7481 61.7132 63.3332C61.7132 63.9183 61.5592 64.4931 61.2667 64.9998V64.9665ZM33.3333 49.9998C32.6741 49.9998 32.0296 50.1953 31.4814 50.5616C30.9333 50.9279 30.506 51.4485 30.2537 52.0576C30.0014 52.6666 29.9354 53.3369 30.064 53.9835C30.1927 54.6301 30.5101 55.224 30.9763 55.6902C31.4425 56.1564 32.0364 56.4738 32.683 56.6025C33.3296 56.7311 33.9999 56.6651 34.6089 56.4128C35.218 56.1605 35.7386 55.7332 36.1049 55.1851C36.4712 54.6369 36.6667 53.9924 36.6667 53.3332C36.6667 52.4491 36.3155 51.6013 35.6904 50.9762C35.0652 50.351 34.2174 49.9998 33.3333 49.9998ZM46.6667 53.3332C46.0074 53.3332 45.3629 53.5287 44.8148 53.8949C44.2666 54.2612 43.8394 54.7818 43.5871 55.3909C43.3348 56 43.2688 56.6702 43.3974 57.3168C43.526 57.9634 43.8435 58.5574 44.3096 59.0235C44.7758 59.4897 45.3698 59.8072 46.0164 59.9358C46.663 60.0644 47.3332 59.9984 47.9423 59.7461C48.5514 59.4938 49.072 59.0666 49.4382 58.5184C49.8045 57.9702 50 57.3258 50 56.6665C50 55.7825 49.6488 54.9346 49.0237 54.3095C48.3986 53.6844 47.5507 53.3332 46.6667 53.3332Z" fill="#005A8D"/>
</svg>
