<svg width="80" height="80" viewBox="0 0 80 80" fill="none" xmlns="http://www.w3.org/2000/svg">
<path d="M63.3333 20H53.3333V16.6667C53.3333 14.8986 52.631 13.2029 51.3807 11.9526C50.1305 10.7024 48.4348 10 46.6667 10H33.3333C31.5652 10 29.8695 10.7024 28.6193 11.9526C27.3691 13.2029 26.6667 14.8986 26.6667 16.6667V20H16.6667C14.0145 20 11.471 21.0536 9.5956 22.9289C7.72024 24.8043 6.66667 27.3478 6.66667 30V60C6.66667 62.6522 7.72024 65.1957 9.5956 67.0711C11.471 68.9464 14.0145 70 16.6667 70H63.3333C65.9855 70 68.529 68.9464 70.4044 67.0711C72.2798 65.1957 73.3333 62.6522 73.3333 60V30C73.3333 27.3478 72.2798 24.8043 70.4044 22.9289C68.529 21.0536 65.9855 20 63.3333 20ZM33.3333 16.6667H46.6667V20H33.3333V16.6667ZM66.6667 60C66.6667 60.8841 66.3155 61.7319 65.6904 62.357C65.0652 62.9821 64.2174 63.3333 63.3333 63.3333H16.6667C15.7826 63.3333 14.9348 62.9821 14.3097 62.357C13.6845 61.7319 13.3333 60.8841 13.3333 60V41.3L28.9333 46.6667C29.2873 46.7147 29.6461 46.7147 30 46.6667H50C50.3615 46.66 50.7204 46.6039 51.0667 46.5L66.6667 41.3V60ZM66.6667 34.2667L49.4667 40H30.5333L13.3333 34.2667V30C13.3333 29.1159 13.6845 28.2681 14.3097 27.643C14.9348 27.0179 15.7826 26.6667 16.6667 26.6667H63.3333C64.2174 26.6667 65.0652 27.0179 65.6904 27.643C66.3155 28.2681 66.6667 29.1159 66.6667 30V34.2667Z" fill="#009AF2"/>
</svg>
