<svg width="60" height="60" viewBox="0 0 60 60" fill="none" xmlns="http://www.w3.org/2000/svg">
<path d="M39.275 31.7751C41.726 29.8467 43.515 27.2024 44.3931 24.2099C45.2712 21.2175 45.1948 18.0257 44.1745 15.0787C43.1541 12.1317 41.2406 9.57605 38.7002 7.76721C36.1597 5.95837 33.1186 4.98633 30 4.98633C26.8814 4.98633 23.8403 5.95837 21.2998 7.76721C18.7594 9.57605 16.8459 12.1317 15.8255 15.0787C14.8052 18.0257 14.7288 21.2175 15.6069 24.2099C16.485 27.2024 18.274 29.8467 20.725 31.7751C16.5252 33.4577 12.8607 36.2484 10.1222 39.8499C7.38374 43.4513 5.6739 47.7283 5.17499 52.2251C5.13888 52.5534 5.16778 52.8856 5.26006 53.2027C5.35233 53.5198 5.50616 53.8157 5.71277 54.0734C6.13004 54.5938 6.73695 54.9271 7.39999 55.0001C8.06303 55.073 8.72789 54.8796 9.2483 54.4623C9.76872 54.045 10.1021 53.4381 10.175 52.7751C10.724 47.8881 13.0542 43.3746 16.7205 40.097C20.3869 36.8195 25.1322 35.0076 30.05 35.0076C34.9677 35.0076 39.7131 36.8195 43.3794 40.097C47.0458 43.3746 49.376 47.8881 49.925 52.7751C49.993 53.3894 50.2861 53.9567 50.7478 54.3676C51.2094 54.7785 51.807 55.0038 52.425 55.0001H52.7C53.3553 54.9247 53.9543 54.5933 54.3664 54.0782C54.7785 53.5631 54.9703 52.906 54.9 52.2501C54.3987 47.7406 52.6797 43.4525 49.9271 39.8456C47.1746 36.2386 43.4923 33.4488 39.275 31.7751ZM30 30.0001C28.0222 30.0001 26.0888 29.4136 24.4443 28.3148C22.7998 27.216 21.5181 25.6542 20.7612 23.8269C20.0043 21.9996 19.8063 19.989 20.1921 18.0492C20.578 16.1094 21.5304 14.3275 22.9289 12.929C24.3274 11.5305 26.1093 10.5781 28.0491 10.1922C29.9889 9.80636 31.9996 10.0044 33.8268 10.7613C35.6541 11.5181 37.2159 12.7999 38.3147 14.4444C39.4135 16.0889 40 18.0223 40 20.0001C40 22.6522 38.9464 25.1958 37.0711 27.0711C35.1957 28.9465 32.6522 30.0001 30 30.0001Z" fill="#009AF2"/>
</svg>
