<svg width="60" height="60" viewBox="0 0 60 60" fill="none" xmlns="http://www.w3.org/2000/svg">
<path d="M53.725 25.475L51.225 24.1L28.725 11.6H28.45C28.2967 11.5351 28.1377 11.4849 27.975 11.45H27.5H27.05C26.8792 11.4849 26.7119 11.5351 26.55 11.6H26.275L3.775 24.1C3.39026 24.318 3.07023 24.6342 2.84759 25.0163C2.62494 25.3984 2.50763 25.8327 2.50763 26.275C2.50763 26.7172 2.62494 27.1515 2.84759 27.5336C3.07023 27.9157 3.39026 28.2319 3.775 28.45L10 31.9V43.75C10 45.7391 10.7902 47.6467 12.1967 49.0533C13.6032 50.4598 15.5109 51.25 17.5 51.25H37.5C39.4891 51.25 41.3968 50.4598 42.8033 49.0533C44.2098 47.6467 45 45.7391 45 43.75V31.9L50 29.1V36.25C50 36.913 50.2634 37.5489 50.7322 38.0177C51.2011 38.4866 51.837 38.75 52.5 38.75C53.163 38.75 53.7989 38.4866 54.2678 38.0177C54.7366 37.5489 55 36.913 55 36.25V27.65C54.9992 27.207 54.8808 26.7721 54.6567 26.39C54.4327 26.0078 54.1112 25.692 53.725 25.475ZM40 43.75C40 44.413 39.7366 45.0489 39.2678 45.5177C38.7989 45.9866 38.163 46.25 37.5 46.25H17.5C16.837 46.25 16.2011 45.9866 15.7322 45.5177C15.2634 45.0489 15 44.413 15 43.75V34.675L26.275 40.925L26.65 41.075H26.875C27.0825 41.1011 27.2925 41.1011 27.5 41.075C27.7075 41.1011 27.9175 41.1011 28.125 41.075H28.35C28.4827 41.047 28.6096 40.9962 28.725 40.925L40 34.675V43.75ZM27.5 35.9L10.15 26.25L27.5 16.6L44.85 26.25L27.5 35.9Z" fill="#009AF2"/>
</svg>
