<svg width="40" height="40" viewBox="0 0 40 40" fill="none" xmlns="http://www.w3.org/2000/svg">
<path d="M26.2394 22.5489C25.7526 22.0225 25.2059 21.5548 24.6104 21.1554C27.0133 19.2975 28.6972 16.6636 29.375 13.7029C29.425 13.4889 29.4323 13.2672 29.3963 13.0504C29.3603 12.8336 29.2818 12.6261 29.1653 12.4398C29.0488 12.2535 28.8966 12.0921 28.7175 11.9648C28.5384 11.8375 28.3358 11.7469 28.1216 11.6982C27.9073 11.6495 27.6855 11.6436 27.469 11.681C27.2524 11.7183 27.0454 11.7981 26.8598 11.9157C26.6742 12.0333 26.5137 12.1865 26.3876 12.3664C26.2614 12.5463 26.1721 12.7494 26.1247 12.9639C25.809 14.3489 25.195 15.6483 24.3256 16.7716C23.4561 17.8949 22.3521 18.815 21.0905 19.4677V13.3367C21.0802 13.2141 21.0558 13.0931 21.0177 12.976C21.0066 12.8797 20.9874 12.7844 20.9602 12.6913C20.8891 12.5397 20.7953 12.3999 20.6822 12.2765C20.6524 12.2411 20.6373 12.1944 20.6047 12.1616C20.4827 12.0489 20.3444 11.9551 20.1946 11.8832C20.1521 11.8605 20.1204 11.8222 20.0758 11.8032C19.9481 11.7607 19.8158 11.7334 19.6817 11.7221C19.5989 11.6979 19.5143 11.6805 19.4287 11.6701L18.3382 11.6667H18.3333C17.9434 11.6649 17.5653 11.8004 17.2654 12.0496C16.9655 12.2987 16.763 12.6456 16.6933 13.0292C16.6237 13.4128 16.6914 13.8087 16.8846 14.1474C17.0778 14.4861 17.3842 14.7459 17.7498 14.8812V23.0323C15.1087 20.2907 13.3599 16.8134 12.7336 13.0584C12.697 12.8426 12.6183 12.6362 12.502 12.4508C12.3856 12.2655 12.2339 12.1048 12.0555 11.9781C11.8771 11.8514 11.6755 11.761 11.4621 11.7122C11.2488 11.6634 11.0279 11.6571 10.8122 11.6937C10.5964 11.7302 10.3899 11.8089 10.2046 11.9253C10.0192 12.0416 9.85859 12.1933 9.73186 12.3717C9.60513 12.5502 9.51479 12.7518 9.46599 12.9651C9.41718 13.1785 9.41088 13.3993 9.44743 13.6151C10.4214 19.4193 13.6581 24.6002 18.4473 28.021C18.5156 28.0619 18.5868 28.0978 18.6603 28.1284C18.718 28.1623 18.7778 28.1925 18.8394 28.2187C19.0255 28.2931 19.2235 28.3331 19.4238 28.3367C19.669 28.3337 19.9104 28.2757 20.1302 28.167C20.1468 28.1591 20.1658 28.1628 20.1823 28.1545C20.3296 28.0777 20.4645 27.9792 20.5825 27.8623C20.6062 27.8392 20.622 27.8108 20.6444 27.7864C20.752 27.6683 20.8417 27.5351 20.9109 27.3911C20.9341 27.3433 20.9553 27.2976 20.9739 27.2474C21.0472 27.0635 21.0867 26.868 21.0905 26.6701L21.0913 23.1267C22.124 23.43 23.0544 24.009 23.7825 24.8015L26.5291 27.7963C26.6769 27.9582 26.8551 28.0893 27.0536 28.1821C27.2521 28.275 27.467 28.3278 27.6859 28.3375C27.9048 28.3472 28.1235 28.3136 28.3294 28.2387C28.5354 28.1638 28.7245 28.049 28.886 27.9008C29.0475 27.7527 29.1782 27.5742 29.2706 27.3755C29.363 27.1768 29.4153 26.9618 29.4245 26.7429C29.4338 26.5239 29.3997 26.3053 29.3243 26.0995C29.2489 25.8938 29.1337 25.7049 28.9852 25.5437L26.2394 22.5489ZM25.1212 1.66675H14.8958C4.63378 1.66675 1.66666 4.63061 1.66666 14.878V25.1042C1.66666 35.3663 4.62971 38.3334 14.8787 38.3334H25.1042C35.3662 38.3334 38.3333 35.3695 38.3333 25.1221V14.8959C38.3333 4.63386 35.3703 1.66675 25.1212 1.66675ZM35 25.1221C35 33.5222 33.5205 35.0001 25.1042 35.0001H14.8787C6.47705 35.0001 5 33.5206 5 25.1042V14.878C5 6.47795 6.4795 5.00008 14.8958 5.00008H25.1212C33.5229 5.00008 35 6.47958 35 14.8959V25.1221Z" fill="#009AF2"/>
</svg>
