<svg width="40" height="40" viewBox="0 0 40 40" fill="none" xmlns="http://www.w3.org/2000/svg">
<path d="M13.3334 27.4999C13.0037 27.4999 12.6815 27.5977 12.4074 27.7808C12.1333 27.9639 11.9197 28.2242 11.7936 28.5288C11.6674 28.8333 11.6344 29.1684 11.6987 29.4917C11.763 29.815 11.9218 30.112 12.1548 30.3451C12.3879 30.5782 12.6849 30.7369 13.0082 30.8012C13.3315 30.8655 13.6666 30.8325 13.9712 30.7064C14.2757 30.5802 14.536 30.3666 14.7191 30.0925C14.9023 29.8185 15 29.4962 15 29.1666C15 28.7246 14.8244 28.3006 14.5119 27.9881C14.1993 27.6755 13.7754 27.4999 13.3334 27.4999ZM20 3.33325C13.3334 3.33325 6.66669 5.61659 6.66669 9.99992V29.9999C6.66669 34.3833 13.3334 36.6666 20 36.6666C26.6667 36.6666 33.3334 34.3833 33.3334 29.9999V9.99992C33.3334 5.61659 26.6667 3.33325 20 3.33325ZM30 29.9999C30 31.1833 26.2 33.3333 20 33.3333C13.8 33.3333 10 31.1833 10 29.9999V24.5499C13.1201 26.0332 16.5465 26.7584 20 26.6666C23.4535 26.7584 26.8799 26.0332 30 24.5499V29.9999ZM30 19.9999C30 21.1833 26.2 23.3333 20 23.3333C13.8 23.3333 10 21.1833 10 19.9999V14.5499C13.1201 16.0332 16.5465 16.7584 20 16.6666C23.4535 16.7584 26.8799 16.0332 30 14.5499V19.9999ZM20 13.3333C13.8 13.3333 10 11.1833 10 9.99992C10 8.81659 13.8 6.66659 20 6.66659C26.2 6.66659 30 8.81659 30 9.99992C30 11.1833 26.2 13.3333 20 13.3333ZM13.3334 17.4999C13.0037 17.4999 12.6815 17.5977 12.4074 17.7808C12.1333 17.9639 11.9197 18.2242 11.7936 18.5288C11.6674 18.8333 11.6344 19.1684 11.6987 19.4917C11.763 19.815 11.9218 20.112 12.1548 20.3451C12.3879 20.5782 12.6849 20.7369 13.0082 20.8012C13.3315 20.8655 13.6666 20.8325 13.9712 20.7064C14.2757 20.5802 14.536 20.3666 14.7191 20.0925C14.9023 19.8185 15 19.4962 15 19.1666C15 18.7246 14.8244 18.3006 14.5119 17.9881C14.1993 17.6755 13.7754 17.4999 13.3334 17.4999Z" fill="#009AF2"/>
</svg>
