<svg width="40" height="40" viewBox="0 0 40 40" fill="none" xmlns="http://www.w3.org/2000/svg">
<path d="M25 28.3334C24.6704 28.3334 24.3481 28.4311 24.0741 28.6143C23.8 28.7974 23.5864 29.0577 23.4602 29.3622C23.3341 29.6668 23.3011 30.0019 23.3654 30.3252C23.4297 30.6485 23.5884 30.9455 23.8215 31.1786C24.0546 31.4116 24.3516 31.5704 24.6749 31.6347C24.9982 31.699 25.3333 31.666 25.6378 31.5398C25.9424 31.4137 26.2027 31.2001 26.3858 30.926C26.5689 30.6519 26.6667 30.3297 26.6667 30C26.6667 29.558 26.4911 29.1341 26.1785 28.8215C25.866 28.509 25.442 28.3334 25 28.3334ZM15 28.3334H10C9.55798 28.3334 9.13406 28.509 8.8215 28.8215C8.50894 29.1341 8.33334 29.558 8.33334 30C8.33334 30.4421 8.50894 30.866 8.8215 31.1786C9.13406 31.4911 9.55798 31.6667 10 31.6667H15C15.442 31.6667 15.866 31.4911 16.1785 31.1786C16.4911 30.866 16.6667 30.4421 16.6667 30C16.6667 29.558 16.4911 29.1341 16.1785 28.8215C15.866 28.509 15.442 28.3334 15 28.3334ZM30 28.3334C29.6704 28.3334 29.3481 28.4311 29.0741 28.6143C28.8 28.7974 28.5864 29.0577 28.4602 29.3622C28.3341 29.6668 28.3011 30.0019 28.3654 30.3252C28.4297 30.6485 28.5884 30.9455 28.8215 31.1786C29.0546 31.4116 29.3516 31.5704 29.6749 31.6347C29.9982 31.699 30.3333 31.666 30.6378 31.5398C30.9424 31.4137 31.2027 31.2001 31.3858 30.926C31.5689 30.6519 31.6667 30.3297 31.6667 30C31.6667 29.558 31.4911 29.1341 31.1785 28.8215C30.866 28.509 30.442 28.3334 30 28.3334ZM25 18.3334C24.6704 18.3334 24.3481 18.4311 24.0741 18.6143C23.8 18.7974 23.5864 19.0577 23.4602 19.3622C23.3341 19.6668 23.3011 20.0019 23.3654 20.3252C23.4297 20.6485 23.5884 20.9455 23.8215 21.1786C24.0546 21.4116 24.3516 21.5704 24.6749 21.6347C24.9982 21.699 25.3333 21.666 25.6378 21.5398C25.9424 21.4137 26.2027 21.2001 26.3858 20.926C26.5689 20.6519 26.6667 20.3297 26.6667 20C26.6667 19.558 26.4911 19.1341 26.1785 18.8215C25.866 18.509 25.442 18.3334 25 18.3334ZM15 18.3334H10C9.55798 18.3334 9.13406 18.509 8.8215 18.8215C8.50894 19.1341 8.33334 19.558 8.33334 20C8.33334 20.4421 8.50894 20.866 8.8215 21.1786C9.13406 21.4911 9.55798 21.6667 10 21.6667H15C15.442 21.6667 15.866 21.4911 16.1785 21.1786C16.4911 20.866 16.6667 20.4421 16.6667 20C16.6667 19.558 16.4911 19.1341 16.1785 18.8215C15.866 18.509 15.442 18.3334 15 18.3334ZM30 8.33337C29.6704 8.33337 29.3481 8.43112 29.0741 8.61426C28.8 8.79739 28.5864 9.05769 28.4602 9.36224C28.3341 9.66678 28.3011 10.0019 28.3654 10.3252C28.4297 10.6485 28.5884 10.9455 28.8215 11.1786C29.0546 11.4116 29.3516 11.5704 29.6749 11.6347C29.9982 11.699 30.3333 11.666 30.6378 11.5398C30.9424 11.4137 31.2027 11.2001 31.3858 10.926C31.5689 10.6519 31.6667 10.3297 31.6667 10C31.6667 9.55801 31.4911 9.13409 31.1785 8.82153C30.866 8.50897 30.442 8.33337 30 8.33337ZM30 18.3334C29.6704 18.3334 29.3481 18.4311 29.0741 18.6143C28.8 18.7974 28.5864 19.0577 28.4602 19.3622C28.3341 19.6668 28.3011 20.0019 28.3654 20.3252C28.4297 20.6485 28.5884 20.9455 28.8215 21.1786C29.0546 21.4116 29.3516 21.5704 29.6749 21.6347C29.9982 21.699 30.3333 21.666 30.6378 21.5398C30.9424 21.4137 31.2027 21.2001 31.3858 20.926C31.5689 20.6519 31.6667 20.3297 31.6667 20C31.6667 19.558 31.4911 19.1341 31.1785 18.8215C30.866 18.509 30.442 18.3334 30 18.3334ZM36.6667 8.33337C36.6667 7.00729 36.1399 5.73552 35.2022 4.79784C34.2645 3.86016 32.9928 3.33337 31.6667 3.33337H8.33334C7.00726 3.33337 5.73549 3.86016 4.79781 4.79784C3.86013 5.73552 3.33334 7.00729 3.33334 8.33337V11.6667C3.34069 12.9001 3.80369 14.0873 4.63334 15C3.80369 15.9128 3.34069 17.1 3.33334 18.3334V21.6667C3.34069 22.9001 3.80369 24.0873 4.63334 25C3.80369 25.9128 3.34069 27.1 3.33334 28.3334V31.6667C3.33334 32.9928 3.86013 34.2646 4.79781 35.2022C5.73549 36.1399 7.00726 36.6667 8.33334 36.6667H31.6667C32.9928 36.6667 34.2645 36.1399 35.2022 35.2022C36.1399 34.2646 36.6667 32.9928 36.6667 31.6667V28.3334C36.6593 27.1 36.1963 25.9128 35.3667 25C36.1963 24.0873 36.6593 22.9001 36.6667 21.6667V18.3334C36.6593 17.1 36.1963 15.9128 35.3667 15C36.1963 14.0873 36.6593 12.9001 36.6667 11.6667V8.33337ZM33.3333 31.6667C33.3333 32.1087 33.1578 32.5327 32.8452 32.8452C32.5326 33.1578 32.1087 33.3334 31.6667 33.3334H8.33334C7.89132 33.3334 7.46739 33.1578 7.15483 32.8452C6.84227 32.5327 6.66668 32.1087 6.66668 31.6667V28.3334C6.66668 27.8913 6.84227 27.4674 7.15483 27.1549C7.46739 26.8423 7.89132 26.6667 8.33334 26.6667H31.6667C32.1087 26.6667 32.5326 26.8423 32.8452 27.1549C33.1578 27.4674 33.3333 27.8913 33.3333 28.3334V31.6667ZM33.3333 21.6667C33.3333 22.1087 33.1578 22.5327 32.8452 22.8452C32.5326 23.1578 32.1087 23.3334 31.6667 23.3334H8.33334C7.89132 23.3334 7.46739 23.1578 7.15483 22.8452C6.84227 22.5327 6.66668 22.1087 6.66668 21.6667V18.3334C6.66668 17.8913 6.84227 17.4674 7.15483 17.1549C7.46739 16.8423 7.89132 16.6667 8.33334 16.6667H31.6667C32.1087 16.6667 32.5326 16.8423 32.8452 17.1549C33.1578 17.4674 33.3333 17.8913 33.3333 18.3334V21.6667ZM33.3333 11.6667C33.3333 12.1087 33.1578 12.5327 32.8452 12.8452C32.5326 13.1578 32.1087 13.3334 31.6667 13.3334H8.33334C7.89132 13.3334 7.46739 13.1578 7.15483 12.8452C6.84227 12.5327 6.66668 12.1087 6.66668 11.6667V8.33337C6.66668 7.89135 6.84227 7.46742 7.15483 7.15486C7.46739 6.8423 7.89132 6.66671 8.33334 6.66671H31.6667C32.1087 6.66671 32.5326 6.8423 32.8452 7.15486C33.1578 7.46742 33.3333 7.89135 33.3333 8.33337V11.6667ZM25 8.33337C24.6704 8.33337 24.3481 8.43112 24.0741 8.61426C23.8 8.79739 23.5864 9.05769 23.4602 9.36224C23.3341 9.66678 23.3011 10.0019 23.3654 10.3252C23.4297 10.6485 23.5884 10.9455 23.8215 11.1786C24.0546 11.4116 24.3516 11.5704 24.6749 11.6347C24.9982 11.699 25.3333 11.666 25.6378 11.5398C25.9424 11.4137 26.2027 11.2001 26.3858 10.926C26.5689 10.6519 26.6667 10.3297 26.6667 10C26.6667 9.55801 26.4911 9.13409 26.1785 8.82153C25.866 8.50897 25.442 8.33337 25 8.33337ZM15 8.33337H10C9.55798 8.33337 9.13406 8.50897 8.8215 8.82153C8.50894 9.13409 8.33334 9.55801 8.33334 10C8.33334 10.4421 8.50894 10.866 8.8215 11.1786C9.13406 11.4911 9.55798 11.6667 10 11.6667H15C15.442 11.6667 15.866 11.4911 16.1785 11.1786C16.4911 10.866 16.6667 10.4421 16.6667 10C16.6667 9.55801 16.4911 9.13409 16.1785 8.82153C15.866 8.50897 15.442 8.33337 15 8.33337Z" fill="#009AF2"/>
</svg>
