<svg width="40" height="40" viewBox="0 0 40 40" fill="none" xmlns="http://www.w3.org/2000/svg">
<path d="M35 17.4999H33.3333V15.8333C33.3333 15.3912 33.1577 14.9673 32.8452 14.6547C32.5326 14.3422 32.1087 14.1666 31.6666 14.1666C31.2246 14.1666 30.8007 14.3422 30.4881 14.6547C30.1756 14.9673 30 15.3912 30 15.8333V17.4999H28.3333C27.8913 17.4999 27.4674 17.6755 27.1548 17.9881C26.8422 18.3006 26.6666 18.7246 26.6666 19.1666C26.6666 19.6086 26.8422 20.0325 27.1548 20.3451C27.4674 20.6577 27.8913 20.8333 28.3333 20.8333H30V22.4999C30 22.9419 30.1756 23.3659 30.4881 23.6784C30.8007 23.991 31.2246 24.1666 31.6666 24.1666C32.1087 24.1666 32.5326 23.991 32.8452 23.6784C33.1577 23.3659 33.3333 22.9419 33.3333 22.4999V20.8333H35C35.442 20.8333 35.8659 20.6577 36.1785 20.3451C36.4911 20.0325 36.6666 19.6086 36.6666 19.1666C36.6666 18.7246 36.4911 18.3006 36.1785 17.9881C35.8659 17.6755 35.442 17.4999 35 17.4999ZM22.1666 20.3666C23.0559 19.5968 23.7692 18.6447 24.2581 17.575C24.747 16.5052 25 15.3428 25 14.1666C25 11.9564 24.122 9.83683 22.5592 8.27403C20.9964 6.71123 18.8768 5.83325 16.6666 5.83325C14.4565 5.83325 12.3369 6.71123 10.7741 8.27403C9.21129 9.83683 8.33331 11.9564 8.33331 14.1666C8.3333 15.3428 8.58632 16.5052 9.07519 17.575C9.56406 18.6447 10.2774 19.5968 11.1666 20.3666C8.83355 21.4231 6.85409 23.1291 5.46495 25.2808C4.07581 27.4325 3.33577 29.9388 3.33331 32.4999C3.33331 32.9419 3.50891 33.3659 3.82147 33.6784C4.13403 33.991 4.55795 34.1666 4.99998 34.1666C5.44201 34.1666 5.86593 33.991 6.17849 33.6784C6.49105 33.3659 6.66665 32.9419 6.66665 32.4999C6.66665 29.8478 7.72022 27.3042 9.59558 25.4289C11.4709 23.5535 14.0145 22.4999 16.6666 22.4999C19.3188 22.4999 21.8624 23.5535 23.7377 25.4289C25.6131 27.3042 26.6666 29.8478 26.6666 32.4999C26.6666 32.9419 26.8422 33.3659 27.1548 33.6784C27.4674 33.991 27.8913 34.1666 28.3333 34.1666C28.7753 34.1666 29.1993 33.991 29.5118 33.6784C29.8244 33.3659 30 32.9419 30 32.4999C29.9975 29.9388 29.2575 27.4325 27.8683 25.2808C26.4792 23.1291 24.4997 21.4231 22.1666 20.3666ZM16.6666 19.1666C15.6777 19.1666 14.711 18.8733 13.8888 18.3239C13.0665 17.7745 12.4257 16.9936 12.0472 16.08C11.6688 15.1664 11.5698 14.161 11.7627 13.1911C11.9556 12.2212 12.4319 11.3303 13.1311 10.6311C13.8304 9.93179 14.7213 9.45559 15.6912 9.26266C16.6611 9.06973 17.6664 9.16875 18.5801 9.54719C19.4937 9.92563 20.2746 10.5665 20.824 11.3887C21.3734 12.211 21.6666 13.1777 21.6666 14.1666C21.6666 15.4927 21.1399 16.7644 20.2022 17.7021C19.2645 18.6398 17.9927 19.1666 16.6666 19.1666Z" fill="#009AF2"/>
</svg>
