<svg width="40" height="40" viewBox="0 0 40 40" fill="none" xmlns="http://www.w3.org/2000/svg">
<path d="M33.3333 16.1167V15.8333C33.3434 12.9982 32.4439 10.2346 30.7669 7.94868C29.09 5.66272 26.724 3.97493 24.0167 3.13333H23.9167C22.5184 2.70705 21.0615 2.50455 19.6 2.53333C16.1197 2.72431 12.8435 4.23624 10.44 6.76054C8.03649 9.28483 6.6869 12.6312 6.66666 16.1167C5.69001 16.4602 4.8441 17.0985 4.24569 17.9434C3.64728 18.7882 3.3259 19.798 3.3259 20.8333C3.3259 21.8686 3.64728 22.8784 4.24569 23.7233C4.8441 24.5682 5.69001 25.2064 6.66666 25.55C7.00994 28.8413 8.56486 31.8873 11.0291 34.0959C13.4934 36.3045 16.6909 37.5178 20 37.5H20.3833C23.5833 37.3451 26.6248 36.0614 28.9681 33.8768C31.3114 31.6922 32.8048 28.7479 33.1833 25.5667C34.1715 25.2425 35.034 24.6183 35.6507 23.781C36.2675 22.9437 36.6078 21.9349 36.6243 20.8951C36.6408 19.8553 36.3327 18.8362 35.7428 17.9797C35.1529 17.1232 34.3107 16.472 33.3333 16.1167ZM20.3 34.1667C17.8873 34.2365 15.5308 33.4313 13.6653 31.8997C11.7998 30.3681 10.5513 28.2134 10.15 25.8333H29.7667C29.3599 28.0865 28.2033 30.1359 26.4847 31.6488C24.7661 33.1616 22.5866 34.0489 20.3 34.1667ZM31.6667 22.5H8.33333C7.8913 22.5 7.46738 22.3244 7.15482 22.0118C6.84226 21.6993 6.66666 21.2754 6.66666 20.8333C6.66666 20.3913 6.84226 19.9674 7.15482 19.6548C7.46738 19.3423 7.8913 19.1667 8.33333 19.1667H11.6667C12.1087 19.1667 12.5326 18.9911 12.8452 18.6785C13.1577 18.3659 13.3333 17.942 13.3333 17.5C13.3333 17.058 13.1577 16.634 12.8452 16.3215C12.5326 16.0089 12.1087 15.8333 11.6667 15.8333H10C10.0746 14.1043 10.5688 12.4195 11.4399 10.9241C12.311 9.42873 13.5328 8.16776 15 7.24999V12.5C15 12.942 15.1756 13.3659 15.4882 13.6785C15.8007 13.9911 16.2246 14.1667 16.6667 14.1667C17.1087 14.1667 17.5326 13.9911 17.8452 13.6785C18.1577 13.3659 18.3333 12.942 18.3333 12.5V5.98333C18.7857 5.90775 19.242 5.85767 19.7 5.83333H20C20.5585 5.84119 21.1157 5.89134 21.6667 5.98333V12.5C21.6667 12.942 21.8423 13.3659 22.1548 13.6785C22.4674 13.9911 22.8913 14.1667 23.3333 14.1667C23.7754 14.1667 24.1993 13.9911 24.5118 13.6785C24.8244 13.3659 25 12.942 25 12.5V7.19999C25.707 7.60937 26.3666 8.09566 26.9667 8.64999C27.9276 9.58316 28.6913 10.6999 29.2123 11.9338C29.7334 13.1678 30.0013 14.4939 30 15.8333H28.3333C27.8913 15.8333 27.4674 16.0089 27.1548 16.3215C26.8423 16.634 26.6667 17.058 26.6667 17.5C26.6667 17.942 26.8423 18.3659 27.1548 18.6785C27.4674 18.9911 27.8913 19.1667 28.3333 19.1667H31.6667C32.1087 19.1667 32.5326 19.3423 32.8452 19.6548C33.1577 19.9674 33.3333 20.3913 33.3333 20.8333C33.3333 21.2754 33.1577 21.6993 32.8452 22.0118C32.5326 22.3244 32.1087 22.5 31.6667 22.5Z" fill="#009AF2"/>
</svg>
