<svg width="40" height="40" viewBox="0 0 40 40" fill="none" xmlns="http://www.w3.org/2000/svg">
<path d="M31.6667 3.33325H8.33334C7.00725 3.33325 5.73548 3.86004 4.7978 4.79772C3.86012 5.7354 3.33334 7.00717 3.33334 8.33325V31.6666C3.33334 32.9927 3.86012 34.2644 4.7978 35.2021C5.73548 36.1398 7.00725 36.6666 8.33334 36.6666H31.6667C31.9408 36.6628 32.2141 36.6349 32.4833 36.5833L32.9833 36.4666H33.1H33.1833L33.8 36.2333L34.0167 36.1166C34.1833 36.0166 34.3667 35.9333 34.5333 35.8166C34.7559 35.6529 34.9675 35.4747 35.1667 35.2833L35.2833 35.1333C35.447 34.9674 35.5974 34.7891 35.7333 34.5999L35.8833 34.3833C35.9998 34.1977 36.1001 34.0025 36.1833 33.7999C36.2291 33.72 36.2681 33.6363 36.3 33.5499C36.3833 33.3499 36.4333 33.1333 36.5 32.9166V32.6666C36.5945 32.3409 36.6504 32.0053 36.6667 31.6666V8.33325C36.6667 7.00717 36.1399 5.7354 35.2022 4.79772C34.2645 3.86004 32.9928 3.33325 31.6667 3.33325ZM8.33334 33.3333C7.89131 33.3333 7.46739 33.1577 7.15482 32.8451C6.84226 32.5325 6.66667 32.1086 6.66667 31.6666V24.4833L12.15 18.9833C12.3049 18.827 12.4893 18.703 12.6924 18.6184C12.8955 18.5338 13.1133 18.4903 13.3333 18.4903C13.5534 18.4903 13.7712 18.5338 13.9743 18.6184C14.1774 18.703 14.3617 18.827 14.5167 18.9833L28.85 33.3333H8.33334ZM33.3333 31.6666C33.3318 31.8721 33.2922 32.0755 33.2167 32.2666C33.1786 32.3478 33.134 32.4259 33.0833 32.4999C33.0387 32.5705 32.9886 32.6374 32.9333 32.6999L24.0167 23.7833L25.4833 22.3166C25.6383 22.1604 25.8226 22.0364 26.0257 21.9518C26.2288 21.8672 26.4467 21.8236 26.6667 21.8236C26.8867 21.8236 27.1045 21.8672 27.3076 21.9518C27.5107 22.0364 27.6951 22.1604 27.85 22.3166L33.3333 27.8166V31.6666ZM33.3333 23.0999L30.2 19.9999C29.2462 19.0949 27.9815 18.5904 26.6667 18.5904C25.3518 18.5904 24.0871 19.0949 23.1333 19.9999L21.6667 21.4666L16.8667 16.6666C15.9129 15.7616 14.6482 15.2571 13.3333 15.2571C12.0185 15.2571 10.7538 15.7616 9.8 16.6666L6.66667 19.7666V8.33325C6.66667 7.89122 6.84226 7.4673 7.15482 7.15474C7.46739 6.84218 7.89131 6.66659 8.33334 6.66659H31.6667C32.1087 6.66659 32.5326 6.84218 32.8452 7.15474C33.1577 7.4673 33.3333 7.89122 33.3333 8.33325V23.0999ZM22.5 9.99992C22.0056 9.99992 21.5222 10.1465 21.1111 10.4212C20.7 10.6959 20.3795 11.0864 20.1903 11.5432C20.0011 12 19.9516 12.5027 20.048 12.9876C20.1445 13.4726 20.3826 13.9181 20.7322 14.2677C21.0819 14.6173 21.5273 14.8554 22.0123 14.9519C22.4972 15.0483 22.9999 14.9988 23.4567 14.8096C23.9135 14.6204 24.304 14.3 24.5787 13.8888C24.8534 13.4777 25 12.9944 25 12.4999C25 11.8369 24.7366 11.201 24.2678 10.7322C23.7989 10.2633 23.163 9.99992 22.5 9.99992Z" fill="#009AF2"/>
</svg>
