<svg width="40" height="40" viewBox="0 0 40 40" fill="none" xmlns="http://www.w3.org/2000/svg">
<path d="M31.6667 3.33325H8.33333C7.00725 3.33325 5.73548 3.86004 4.79779 4.79772C3.86011 5.7354 3.33333 7.00717 3.33333 8.33325V24.9999C3.33333 26.326 3.86011 27.5978 4.79779 28.5355C5.73548 29.4731 7.00725 29.9999 8.33333 29.9999H13.3333V33.3333H8.33333C7.8913 33.3333 7.46738 33.5088 7.15482 33.8214C6.84226 34.134 6.66666 34.5579 6.66666 34.9999C6.66666 35.4419 6.84226 35.8659 7.15482 36.1784C7.46738 36.491 7.8913 36.6666 8.33333 36.6666H31.6667C32.1087 36.6666 32.5326 36.491 32.8452 36.1784C33.1577 35.8659 33.3333 35.4419 33.3333 34.9999C33.3333 34.5579 33.1577 34.134 32.8452 33.8214C32.5326 33.5088 32.1087 33.3333 31.6667 33.3333H26.6667V29.9999H31.6667C32.9927 29.9999 34.2645 29.4731 35.2022 28.5355C36.1399 27.5978 36.6667 26.326 36.6667 24.9999V8.33325C36.6667 7.00717 36.1399 5.7354 35.2022 4.79772C34.2645 3.86004 32.9927 3.33325 31.6667 3.33325ZM23.3333 33.3333H16.6667V29.9999H23.3333V33.3333ZM33.3333 24.9999C33.3333 25.4419 33.1577 25.8659 32.8452 26.1784C32.5326 26.491 32.1087 26.6666 31.6667 26.6666H8.33333C7.8913 26.6666 7.46738 26.491 7.15482 26.1784C6.84226 25.8659 6.66666 25.4419 6.66666 24.9999V23.3333H33.3333V24.9999ZM33.3333 19.9999H6.66666V8.33325C6.66666 7.89122 6.84226 7.4673 7.15482 7.15474C7.46738 6.84218 7.8913 6.66659 8.33333 6.66659H31.6667C32.1087 6.66659 32.5326 6.84218 32.8452 7.15474C33.1577 7.4673 33.3333 7.89122 33.3333 8.33325V19.9999Z" fill="#009AF2"/>
</svg>
