<svg width="40" height="40" viewBox="0 0 40 40" fill="none" xmlns="http://www.w3.org/2000/svg">
<path d="M35.8834 11.9167C35.63 11.7704 35.3426 11.6934 35.05 11.6934C34.7575 11.6934 34.47 11.7704 34.2167 11.9167L28.3333 14.8167C28.2859 13.5226 27.7382 12.2975 26.8056 11.3991C25.873 10.5007 24.6283 9.99913 23.3333 10H8.33334C7.00726 10 5.73549 10.5268 4.79781 11.4645C3.86013 12.4021 3.33334 13.6739 3.33334 15V25C3.33334 26.3261 3.86013 27.5979 4.79781 28.5355C5.73549 29.4732 7.00726 30 8.33334 30H23.3333C24.6283 30.0009 25.873 29.4993 26.8056 28.6009C27.7382 27.7025 28.2859 26.4774 28.3333 25.1833L34.2667 28.15C34.4939 28.2665 34.7448 28.3292 35 28.3333C35.3121 28.3343 35.6181 28.2477 35.8834 28.0833C36.1235 27.9332 36.3215 27.7244 36.4586 27.4765C36.5956 27.2286 36.6672 26.9499 36.6667 26.6667V13.3333C36.6672 13.0501 36.5956 12.7714 36.4586 12.5235C36.3215 12.2756 36.1235 12.0668 35.8834 11.9167ZM25 25C25 25.442 24.8244 25.866 24.5119 26.1785C24.1993 26.4911 23.7754 26.6667 23.3333 26.6667H8.33334C7.89132 26.6667 7.46739 26.4911 7.15483 26.1785C6.84227 25.866 6.66668 25.442 6.66668 25V15C6.66668 14.558 6.84227 14.1341 7.15483 13.8215C7.46739 13.5089 7.89132 13.3333 8.33334 13.3333H23.3333C23.7754 13.3333 24.1993 13.5089 24.5119 13.8215C24.8244 14.1341 25 14.558 25 15V25ZM33.3333 23.9667L28.3333 21.4667V18.5333L33.3333 16.0333V23.9667Z" fill="#009AF2"/>
</svg>
