<svg width="30" height="40" viewBox="0 0 30 40" fill="none" xmlns="http://www.w3.org/2000/svg">
<path d="M9.375 16H11.25C11.7473 16 12.2242 15.7893 12.5758 15.4142C12.9275 15.0391 13.125 14.5304 13.125 14C13.125 13.4696 12.9275 12.9609 12.5758 12.5858C12.2242 12.2107 11.7473 12 11.25 12H9.375C8.87772 12 8.40081 12.2107 8.04918 12.5858C7.69754 12.9609 7.5 13.4696 7.5 14C7.5 14.5304 7.69754 15.0391 8.04918 15.4142C8.40081 15.7893 8.87772 16 9.375 16ZM9.375 20C8.87772 20 8.40081 20.2107 8.04918 20.5858C7.69754 20.9609 7.5 21.4696 7.5 22C7.5 22.5304 7.69754 23.0391 8.04918 23.4142C8.40081 23.7893 8.87772 24 9.375 24H20.625C21.1223 24 21.5992 23.7893 21.9508 23.4142C22.3025 23.0391 22.5 22.5304 22.5 22C22.5 21.4696 22.3025 20.9609 21.9508 20.5858C21.5992 20.2107 21.1223 20 20.625 20H9.375ZM30 13.88C29.9805 13.6963 29.9428 13.5153 29.8875 13.34V13.16C29.7973 12.9544 29.6771 12.7653 29.5312 12.6L18.2812 0.6C18.1263 0.444432 17.949 0.316162 17.7563 0.22C17.7003 0.21152 17.6435 0.21152 17.5875 0.22C17.397 0.103482 17.1867 0.0286884 16.9688 0H5.625C4.13316 0 2.70242 0.632141 1.64752 1.75736C0.592632 2.88258 0 4.4087 0 6V34C0 35.5913 0.592632 37.1174 1.64752 38.2426C2.70242 39.3679 4.13316 40 5.625 40H24.375C25.8668 40 27.2976 39.3679 28.3525 38.2426C29.4074 37.1174 30 35.5913 30 34V14C30 14 30 14 30 13.88ZM18.75 6.82L23.6063 12H20.625C20.1277 12 19.6508 11.7893 19.2992 11.4142C18.9475 11.0391 18.75 10.5304 18.75 10V6.82ZM26.25 34C26.25 34.5304 26.0525 35.0391 25.7008 35.4142C25.3492 35.7893 24.8723 36 24.375 36H5.625C5.12772 36 4.65081 35.7893 4.29918 35.4142C3.94754 35.0391 3.75 34.5304 3.75 34V6C3.75 5.46957 3.94754 4.96086 4.29918 4.58579C4.65081 4.21071 5.12772 4 5.625 4H15V10C15 11.5913 15.5926 13.1174 16.6475 14.2426C17.7024 15.3679 19.1332 16 20.625 16H26.25V34ZM20.625 28H9.375C8.87772 28 8.40081 28.2107 8.04918 28.5858C7.69754 28.9609 7.5 29.4696 7.5 30C7.5 30.5304 7.69754 31.0391 8.04918 31.4142C8.40081 31.7893 8.87772 32 9.375 32H20.625C21.1223 32 21.5992 31.7893 21.9508 31.4142C22.3025 31.0391 22.5 30.5304 22.5 30C22.5 29.4696 22.3025 28.9609 21.9508 28.5858C21.5992 28.2107 21.1223 28 20.625 28Z" fill="#009AF2"/>
</svg>
