<svg width="40" height="40" viewBox="0 0 40 40" fill="none" xmlns="http://www.w3.org/2000/svg">
<path d="M35.8167 16.9833L34.15 16.0666L19.15 7.7333H18.9667C18.8645 7.6901 18.7585 7.65662 18.65 7.6333H18.3333H18.0333C17.9195 7.65663 17.8079 7.6901 17.7 7.7333H17.5167L2.51667 16.0666C2.26017 16.212 2.04682 16.4228 1.89839 16.6775C1.74996 16.9323 1.67175 17.2218 1.67175 17.5166C1.67175 17.8115 1.74996 18.101 1.89839 18.3557C2.04682 18.6105 2.26017 18.8213 2.51667 18.9666L6.66667 21.2666V29.1666C6.66667 30.4927 7.19345 31.7645 8.13113 32.7022C9.06882 33.6399 10.3406 34.1666 11.6667 34.1666H25C26.3261 34.1666 27.5979 33.6399 28.5355 32.7022C29.4732 31.7645 30 30.4927 30 29.1666V21.2666L33.3333 19.4V24.1666C33.3333 24.6087 33.5089 25.0326 33.8215 25.3451C34.134 25.6577 34.558 25.8333 35 25.8333C35.442 25.8333 35.866 25.6577 36.1785 25.3451C36.4911 25.0326 36.6667 24.6087 36.6667 24.1666V18.4333C36.6662 18.138 36.5872 17.8481 36.4378 17.5933C36.2885 17.3385 36.0741 17.128 35.8167 16.9833ZM26.6667 29.1666C26.6667 29.6087 26.4911 30.0326 26.1785 30.3451C25.866 30.6577 25.442 30.8333 25 30.8333H11.6667C11.2246 30.8333 10.8007 30.6577 10.4882 30.3451C10.1756 30.0326 10 29.6087 10 29.1666V23.1166L17.5167 27.2833L17.7667 27.3833H17.9167C18.055 27.4007 18.195 27.4007 18.3333 27.3833C18.4717 27.4007 18.6117 27.4007 18.75 27.3833H18.9C18.9885 27.3646 19.0731 27.3308 19.15 27.2833L26.6667 23.1166V29.1666ZM18.3333 23.9333L6.76667 17.5L18.3333 11.0666L29.9 17.5L18.3333 23.9333Z" fill="#009AF2"/>
</svg>
