<svg width="40" height="40" viewBox="0 0 40 40" fill="none" xmlns="http://www.w3.org/2000/svg">
<path d="M28.3333 36.6669H8.33334C7.00726 36.6669 5.73549 36.1401 4.79781 35.2024C3.86013 34.2647 3.33334 32.9929 3.33334 31.6669V15.0002C3.33334 13.6741 3.86013 12.4023 4.79781 11.4647C5.73549 10.527 7.00726 10.0002 8.33334 10.0002H10C10.028 8.58792 10.5039 7.22105 11.359 6.09674C12.2141 4.97242 13.4043 4.14877 14.7577 3.74458C16.1112 3.34038 17.5581 3.37655 18.8897 3.84785C20.2213 4.31915 21.3688 5.20122 22.1667 6.36685C22.9141 7.4321 23.3209 8.69896 23.3333 10.0002H28.3333C28.7754 10.0002 29.1993 10.1758 29.5119 10.4883C29.8244 10.8009 30 11.2248 30 11.6669V16.6669C31.4123 16.6949 32.7791 17.1708 33.9035 18.0259C35.0278 18.881 35.8514 20.0711 36.2556 21.4246C36.6598 22.7781 36.6237 24.225 36.1524 25.5566C35.6811 26.8882 34.799 28.0357 33.6333 28.8335C32.5681 29.5809 31.3012 29.9877 30 30.0002V35.0002C30 35.4422 29.8244 35.8661 29.5119 36.1787C29.1993 36.4913 28.7754 36.6669 28.3333 36.6669ZM8.33334 13.3335C7.89132 13.3335 7.46739 13.5091 7.15483 13.8217C6.84227 14.1342 6.66668 14.5582 6.66668 15.0002V31.6669C6.66668 32.1089 6.84227 32.5328 7.15483 32.8454C7.46739 33.1579 7.89132 33.3335 8.33334 33.3335H26.6667V28.0335C26.6652 27.7663 26.7281 27.5026 26.8499 27.2648C26.9717 27.0269 27.149 26.8218 27.3667 26.6669C27.5837 26.5121 27.8347 26.4116 28.0986 26.3739C28.3625 26.3362 28.6316 26.3624 28.8833 26.4502C29.3583 26.644 29.8756 26.7105 30.3842 26.6433C30.8928 26.5761 31.375 26.3774 31.7833 26.0669C32.1898 25.819 32.5384 25.487 32.8057 25.0931C33.0731 24.6993 33.253 24.2527 33.3333 23.7835C33.3976 23.3103 33.3595 22.8288 33.2214 22.3716C33.0834 21.9143 32.8487 21.4921 32.5333 21.1335C32.1068 20.6154 31.5259 20.247 30.8753 20.0821C30.2248 19.9172 29.5385 19.9644 28.9167 20.2169C28.665 20.3047 28.3959 20.3308 28.132 20.2931C27.8681 20.2554 27.6171 20.155 27.4 20.0002C27.1823 19.8452 27.0051 19.6401 26.8832 19.4023C26.7614 19.1644 26.6986 18.9008 26.7 18.6335V13.3335H21.3667C21.0928 13.349 20.8193 13.2967 20.5704 13.1812C20.3216 13.0656 20.1051 12.8904 19.9402 12.6711C19.7754 12.4518 19.6672 12.1952 19.6253 11.9241C19.5834 11.653 19.609 11.3757 19.7 11.1169C19.8938 10.6419 19.9603 10.1246 19.8931 9.61599C19.8259 9.10743 19.6272 8.62518 19.3167 8.21685C19.0706 7.7988 18.7336 7.44147 18.3307 7.17134C17.9277 6.90122 17.4692 6.72522 16.989 6.65639C16.5088 6.58757 16.0193 6.62767 15.5567 6.77373C15.0941 6.9198 14.6703 7.16808 14.3167 7.50019C13.9883 7.82588 13.7313 8.21634 13.562 8.64674C13.3927 9.07714 13.3148 9.53806 13.3333 10.0002C13.3372 10.3825 13.4106 10.7609 13.55 11.1169C13.6381 11.3689 13.6644 11.6384 13.6266 11.9027C13.5888 12.167 13.4881 12.4184 13.3329 12.6356C13.1778 12.8529 12.9727 13.0297 12.7349 13.1511C12.4971 13.2726 12.2337 13.3351 11.9667 13.3335H8.33334Z" fill="#009AF2"/>
</svg>
