<svg width="40" height="40" viewBox="0 0 40 40" fill="none" xmlns="http://www.w3.org/2000/svg">
<path d="M10 20L12.2451 26.9098H19.5106L13.6327 31.1803L15.8779 38.0902L10 33.8197L4.12215 38.0902L6.36729 31.1803L0.489435 26.9098H7.75486L10 20Z" fill="#009AF2"/>
<path d="M30 20L32.2451 26.9098H39.5106L33.6327 31.1803L35.8779 38.0902L30 33.8197L24.1221 38.0902L26.3673 31.1803L20.4894 26.9098H27.7549L30 20Z" fill="#009AF2"/>
<path d="M20 0L22.2451 6.90983H29.5106L23.6327 11.1803L25.8779 18.0902L20 13.8197L14.1221 18.0902L16.3673 11.1803L10.4894 6.90983H17.7549L20 0Z" fill="#009AF2"/>
</svg>
