<svg width="80" height="80" viewBox="0 0 80 80" fill="none" xmlns="http://www.w3.org/2000/svg">
<path d="M63.3334 10H16.6667C14.0145 10 11.471 11.0536 9.59562 12.9289C7.72026 14.8043 6.66669 17.3478 6.66669 20V46.6667C6.66669 49.3188 7.72026 51.8624 9.59562 53.7377C11.471 55.6131 14.0145 56.6667 16.6667 56.6667H36.6667V63.3333H23.3334C22.4493 63.3333 21.6015 63.6845 20.9763 64.3096C20.3512 64.9348 20 65.7826 20 66.6667C20 67.5507 20.3512 68.3986 20.9763 69.0237C21.6015 69.6488 22.4493 70 23.3334 70H56.6667C57.5507 70 58.3986 69.6488 59.0237 69.0237C59.6488 68.3986 60 67.5507 60 66.6667C60 65.7826 59.6488 64.9348 59.0237 64.3096C58.3986 63.6845 57.5507 63.3333 56.6667 63.3333H43.3334V56.6667H63.3334C65.9855 56.6667 68.5291 55.6131 70.4044 53.7377C72.2798 51.8624 73.3334 49.3188 73.3334 46.6667V20C73.3334 17.3478 72.2798 14.8043 70.4044 12.9289C68.5291 11.0536 65.9855 10 63.3334 10ZM66.6667 46.6667C66.6667 47.5507 66.3155 48.3986 65.6904 49.0237C65.0653 49.6488 64.2174 50 63.3334 50H16.6667C15.7826 50 14.9348 49.6488 14.3097 49.0237C13.6845 48.3986 13.3334 47.5507 13.3334 46.6667V20C13.3334 19.1159 13.6845 18.2681 14.3097 17.643C14.9348 17.0179 15.7826 16.6667 16.6667 16.6667H63.3334C64.2174 16.6667 65.0653 17.0179 65.6904 17.643C66.3155 18.2681 66.6667 19.1159 66.6667 20V46.6667Z" fill="#005A8D"/>
</svg>
