<svg width="80" height="80" viewBox="0 0 80 80" fill="none" xmlns="http://www.w3.org/2000/svg">
<path d="M43.3333 46.6665H30C29.116 46.6665 28.2681 47.0177 27.643 47.6428C27.0179 48.2679 26.6667 49.1158 26.6667 49.9998C26.6667 50.8839 27.0179 51.7317 27.643 52.3569C28.2681 52.982 29.116 53.3332 30 53.3332H43.3333C44.2174 53.3332 45.0652 52.982 45.6904 52.3569C46.3155 51.7317 46.6667 50.8839 46.6667 49.9998C46.6667 49.1158 46.3155 48.2679 45.6904 47.6428C45.0652 47.0177 44.2174 46.6665 43.3333 46.6665ZM56.6667 13.3332H52.7333C52.0456 11.388 50.7731 9.70317 49.0902 8.50963C47.4073 7.3161 45.3965 6.6723 43.3333 6.6665H36.6667C34.6035 6.6723 32.5927 7.3161 30.9098 8.50963C29.2269 9.70317 27.9544 11.388 27.2667 13.3332H23.3333C20.6812 13.3332 18.1376 14.3867 16.2623 16.2621C14.3869 18.1375 13.3333 20.681 13.3333 23.3332V63.3332C13.3333 65.9853 14.3869 68.5289 16.2623 70.4042C18.1376 72.2796 20.6812 73.3332 23.3333 73.3332H56.6667C59.3188 73.3332 61.8624 72.2796 63.7377 70.4042C65.6131 68.5289 66.6667 65.9853 66.6667 63.3332V23.3332C66.6667 20.681 65.6131 18.1375 63.7377 16.2621C61.8624 14.3867 59.3188 13.3332 56.6667 13.3332ZM33.3333 16.6665C33.3333 15.7824 33.6845 14.9346 34.3097 14.3095C34.9348 13.6844 35.7826 13.3332 36.6667 13.3332H43.3333C44.2174 13.3332 45.0652 13.6844 45.6904 14.3095C46.3155 14.9346 46.6667 15.7824 46.6667 16.6665V19.9998H33.3333V16.6665ZM60 63.3332C60 64.2172 59.6488 65.0651 59.0237 65.6902C58.3986 66.3153 57.5507 66.6665 56.6667 66.6665H23.3333C22.4493 66.6665 21.6014 66.3153 20.9763 65.6902C20.3512 65.0651 20 64.2172 20 63.3332V23.3332C20 22.4491 20.3512 21.6013 20.9763 20.9761C21.6014 20.351 22.4493 19.9998 23.3333 19.9998H26.6667V23.3332C26.6667 24.2172 27.0179 25.0651 27.643 25.6902C28.2681 26.3153 29.116 26.6665 30 26.6665H50C50.8841 26.6665 51.7319 26.3153 52.357 25.6902C52.9822 25.0651 53.3333 24.2172 53.3333 23.3332V19.9998H56.6667C57.5507 19.9998 58.3986 20.351 59.0237 20.9761C59.6488 21.6013 60 22.4491 60 23.3332V63.3332ZM50 33.3332H30C29.116 33.3332 28.2681 33.6844 27.643 34.3095C27.0179 34.9346 26.6667 35.7824 26.6667 36.6665C26.6667 37.5506 27.0179 38.3984 27.643 39.0235C28.2681 39.6486 29.116 39.9998 30 39.9998H50C50.8841 39.9998 51.7319 39.6486 52.357 39.0235C52.9822 38.3984 53.3333 37.5506 53.3333 36.6665C53.3333 35.7824 52.9822 34.9346 52.357 34.3095C51.7319 33.6844 50.8841 33.3332 50 33.3332Z" fill="#009AF2"/>
</svg>
