<svg width="40" height="40" viewBox="0 0 40 40" fill="none" xmlns="http://www.w3.org/2000/svg">
<path d="M18.3333 3.3335C15.037 3.3335 11.8146 4.31098 9.07383 6.14234C6.33301 7.97369 4.1968 10.5767 2.93534 13.6221C1.67388 16.6675 1.34382 20.0187 1.98691 23.2517C2.63 26.4847 4.21734 29.4544 6.54822 31.7853C8.87909 34.1162 11.8488 35.7035 15.0818 36.3466C18.3148 36.9897 21.666 36.6596 24.7114 35.3982C27.7568 34.1367 30.3598 32.0005 32.1912 29.2597C34.0225 26.5188 35 23.2965 35 20.0002C35 17.8115 34.5689 15.6442 33.7313 13.6221C32.8937 11.6 31.6661 9.76269 30.1184 8.21505C28.5708 6.66741 26.7335 5.43975 24.7114 4.60217C22.6893 3.76459 20.522 3.3335 18.3333 3.3335ZM18.3333 33.3335C15.6962 33.3335 13.1184 32.5515 10.9257 31.0864C8.73307 29.6213 7.02411 27.539 6.01494 25.1026C5.00577 22.6663 4.74172 19.9854 5.25619 17.399C5.77066 14.8125 7.04054 12.4368 8.90524 10.5721C10.7699 8.70737 13.1457 7.4375 15.7321 6.92303C18.3185 6.40856 20.9994 6.6726 23.4358 7.68177C25.8721 8.69094 27.9545 10.3999 29.4196 12.5926C30.8847 14.7852 31.6667 17.3631 31.6667 20.0002C31.6667 23.5364 30.2619 26.9278 27.7614 29.4283C25.2609 31.9287 21.8696 33.3335 18.3333 33.3335ZM18.3333 10.0002C17.8913 10.0002 17.4674 10.1758 17.1548 10.4883C16.8423 10.8009 16.6667 11.2248 16.6667 11.6668V19.8835L14.3833 23.8335C14.1623 24.2181 14.1031 24.6747 14.2188 25.1029C14.3344 25.5311 14.6154 25.8958 15 26.1168C15.3846 26.3378 15.8412 26.397 16.2694 26.2814C16.6976 26.1657 17.0623 25.8847 17.2833 25.5002L19.7833 21.1668C19.9437 20.8656 20.0077 20.5223 19.9667 20.1835L20 20.0002V11.6668C20 11.2248 19.8244 10.8009 19.5118 10.4883C19.1993 10.1758 18.7754 10.0002 18.3333 10.0002Z" fill="#009AF2"/>
</svg>
