<svg width="80" height="80" viewBox="0 0 80 80" fill="none" xmlns="http://www.w3.org/2000/svg">
<path d="M46.6667 36.6666H43.3333V23.3333H50C50.8841 23.3333 51.7319 23.6845 52.357 24.3096C52.9821 24.9347 53.3333 25.7826 53.3333 26.6666C53.3333 27.5507 53.6845 28.3985 54.3096 29.0236C54.9348 29.6488 55.7826 30 56.6667 30C57.5507 30 58.3986 29.6488 59.0237 29.0236C59.6488 28.3985 60 27.5507 60 26.6666C60 24.0145 58.9464 21.4709 57.0711 19.5956C55.1957 17.7202 52.6522 16.6666 50 16.6666H43.3333V9.99996C43.3333 9.1159 42.9821 8.26806 42.357 7.64294C41.7319 7.01782 40.8841 6.66663 40 6.66663C39.1159 6.66663 38.2681 7.01782 37.643 7.64294C37.0179 8.26806 36.6667 9.1159 36.6667 9.99996V16.6666H33.3333C29.7971 16.6666 26.4057 18.0714 23.9052 20.5719C21.4048 23.0724 20 26.4637 20 30C20 33.5362 21.4048 36.9276 23.9052 39.4281C26.4057 41.9285 29.7971 43.3333 33.3333 43.3333H36.6667V56.6666H30C29.1159 56.6666 28.2681 56.3154 27.643 55.6903C27.0179 55.0652 26.6667 54.2174 26.6667 53.3333C26.6667 52.4492 26.3155 51.6014 25.6904 50.9763C25.0652 50.3512 24.2174 50 23.3333 50C22.4493 50 21.6014 50.3512 20.9763 50.9763C20.3512 51.6014 20 52.4492 20 53.3333C20 55.9855 21.0536 58.529 22.9289 60.4044C24.8043 62.2797 27.3478 63.3333 30 63.3333H36.6667V70C36.6667 70.884 37.0179 71.7319 37.643 72.357C38.2681 72.9821 39.1159 73.3333 40 73.3333C40.8841 73.3333 41.7319 72.9821 42.357 72.357C42.9821 71.7319 43.3333 70.884 43.3333 70V63.3333H46.6667C50.2029 63.3333 53.5943 61.9285 56.0948 59.4281C58.5952 56.9276 60 53.5362 60 50C60 46.4637 58.5952 43.0724 56.0948 40.5719C53.5943 38.0714 50.2029 36.6666 46.6667 36.6666ZM36.6667 36.6666H33.3333C31.5652 36.6666 29.8695 35.9642 28.6193 34.714C27.369 33.4638 26.6667 31.7681 26.6667 30C26.6667 28.2318 27.369 26.5362 28.6193 25.2859C29.8695 24.0357 31.5652 23.3333 33.3333 23.3333H36.6667V36.6666ZM46.6667 56.6666H43.3333V43.3333H46.6667C48.4348 43.3333 50.1305 44.0357 51.3807 45.2859C52.631 46.5362 53.3333 48.2318 53.3333 50C53.3333 51.7681 52.631 53.4638 51.3807 54.714C50.1305 55.9642 48.4348 56.6666 46.6667 56.6666Z" fill="#009AF2"/>
</svg>
