<svg width="80" height="80" viewBox="0 0 80 80" fill="none" xmlns="http://www.w3.org/2000/svg">
<path d="M70 36.6667C69.1159 36.6667 68.2681 37.0179 67.643 37.643C67.0178 38.2681 66.6667 39.116 66.6667 40V48.6334L45.7 27.6334C45.3901 27.3209 45.0214 27.073 44.6152 26.9037C44.209 26.7345 43.7734 26.6474 43.3333 26.6474C42.8933 26.6474 42.4576 26.7345 42.0514 26.9037C41.6452 27.073 41.2765 27.3209 40.9667 27.6334L30 38.6334L12.3667 20.9667C11.739 20.339 10.8877 19.9864 9.99999 19.9864C9.11232 19.9864 8.261 20.339 7.63332 20.9667C7.00564 21.5944 6.65302 22.4457 6.65302 23.3334C6.65302 24.221 7.00564 25.0724 7.63332 25.7L27.6333 45.7C27.9432 46.0125 28.3119 46.2604 28.7181 46.4297C29.1243 46.5989 29.5599 46.686 30 46.686C30.44 46.686 30.8757 46.5989 31.2819 46.4297C31.6881 46.2604 32.0568 46.0125 32.3667 45.7L43.3333 34.7L61.9667 53.3334H53.3333C52.4493 53.3334 51.6014 53.6846 50.9763 54.3097C50.3512 54.9348 50 55.7826 50 56.6667C50 57.5508 50.3512 58.3986 50.9763 59.0237C51.6014 59.6488 52.4493 60 53.3333 60H70C70.4356 59.9948 70.8659 59.9042 71.2667 59.7334C72.0812 59.3951 72.7284 58.7479 73.0667 57.9334C73.2375 57.5326 73.3281 57.1023 73.3333 56.6667V40C73.3333 39.116 72.9821 38.2681 72.357 37.643C71.7319 37.0179 70.884 36.6667 70 36.6667Z" fill="#009AF2"/>
</svg>
