<svg width="80" height="80" viewBox="0 0 80 80" fill="none" xmlns="http://www.w3.org/2000/svg">
<path d="M36.6667 6.66663C30.074 6.66663 23.6293 8.62159 18.1477 12.2843C12.666 15.947 8.3936 21.153 5.87068 27.2438C3.34776 33.3347 2.68764 40.0369 3.97382 46.503C5.25999 52.969 8.43468 58.9084 13.0964 63.5702C17.7582 68.2319 23.6976 71.4066 30.1637 72.6928C36.6297 73.979 43.3319 73.3189 49.4228 70.796C55.5136 68.273 60.7196 64.0006 64.3823 58.519C68.045 53.0373 70 46.5927 70 40C70 35.6226 69.1378 31.288 67.4626 27.2438C65.7875 23.1997 63.3322 19.525 60.2369 16.4297C57.1416 13.3344 53.467 10.8791 49.4228 9.20398C45.3786 7.52882 41.0441 6.66663 36.6667 6.66663ZM36.6667 66.6666C31.3925 66.6666 26.2368 65.1027 21.8515 62.1725C17.4661 59.2423 14.0482 55.0775 12.0299 50.2049C10.0115 45.3322 9.48345 39.9704 10.5124 34.7976C11.5413 29.6247 14.0811 24.8732 17.8105 21.1438C21.5399 17.4144 26.2914 14.8746 31.4643 13.8457C36.6371 12.8167 41.9989 13.3448 46.8716 15.3632C51.7442 17.3815 55.909 20.7994 58.8392 25.1848C61.7693 29.5701 63.3333 34.7258 63.3333 40C63.3333 47.0724 60.5238 53.8552 55.5228 58.8561C50.5219 63.8571 43.7391 66.6666 36.6667 66.6666ZM36.6667 20C35.7826 20 34.9348 20.3512 34.3096 20.9763C33.6845 21.6014 33.3333 22.4492 33.3333 23.3333V39.7666L28.7667 47.6666C28.3246 48.4358 28.2062 49.349 28.4375 50.2054C28.6688 51.0618 29.2309 51.7913 30 52.2333C30.7691 52.6753 31.6823 52.7937 32.5388 52.5624C33.3952 52.3311 34.1246 51.7691 34.5667 51L39.5667 42.3333C39.8874 41.7307 40.0154 41.0443 39.9333 40.3666L40 40V23.3333C40 22.4492 39.6488 21.6014 39.0237 20.9763C38.3986 20.3512 37.5507 20 36.6667 20Z" fill="#009AF2"/>
</svg>
