<svg width="80" height="80" viewBox="0 0 80 80" fill="none" xmlns="http://www.w3.org/2000/svg">
<path d="M41 40.7334C42.7786 39.1938 44.2051 37.2896 45.1829 35.1501C46.1606 33.0106 46.6667 30.6857 46.6666 28.3334C46.6666 23.9131 44.9107 19.6738 41.7851 16.5482C38.6595 13.4226 34.4203 11.6667 30 11.6667C25.5797 11.6667 21.3405 13.4226 18.2149 16.5482C15.0893 19.6738 13.3333 23.9131 13.3333 28.3334C13.3333 30.6857 13.8393 33.0106 14.8171 35.1501C15.7948 37.2896 17.2214 39.1938 19 40.7334C14.3338 42.8463 10.3749 46.2585 7.59658 50.5618C4.8183 54.8652 3.33822 59.8777 3.33331 65C3.33331 65.8841 3.6845 66.7319 4.30962 67.3571C4.93474 67.9822 5.78259 68.3334 6.66665 68.3334C7.5507 68.3334 8.39855 67.9822 9.02367 67.3571C9.64879 66.7319 9.99998 65.8841 9.99998 65C9.99998 59.6957 12.1071 54.6086 15.8578 50.8579C19.6086 47.1072 24.6957 45 30 45C35.3043 45 40.3914 47.1072 44.1421 50.8579C47.8928 54.6086 50 59.6957 50 65C50 65.8841 50.3512 66.7319 50.9763 67.3571C51.6014 67.9822 52.4493 68.3334 53.3333 68.3334C54.2174 68.3334 55.0652 67.9822 55.6903 67.3571C56.3155 66.7319 56.6666 65.8841 56.6666 65C56.6617 59.8777 55.1817 54.8652 52.4034 50.5618C49.6251 46.2585 45.6662 42.8463 41 40.7334ZM30 38.3334C28.0222 38.3334 26.0888 37.7469 24.4443 36.6481C22.7998 35.5492 21.5181 33.9875 20.7612 32.1602C20.0043 30.3329 19.8063 28.3223 20.1921 26.3825C20.578 24.4426 21.5304 22.6608 22.9289 21.2623C24.3274 19.8638 26.1093 18.9114 28.0491 18.5255C29.9889 18.1397 31.9996 18.3377 33.8268 19.0946C35.6541 19.8514 37.2159 21.1332 38.3147 22.7777C39.4135 24.4221 40 26.3555 40 28.3334C40 30.9855 38.9464 33.5291 37.071 35.4044C35.1957 37.2798 32.6521 38.3334 30 38.3334ZM62.4666 39.4C64.5999 36.9978 65.9933 34.0302 66.4793 30.8545C66.9653 27.6788 66.5231 24.4303 65.2059 21.5C63.8887 18.5698 61.7526 16.0827 59.0549 14.3381C56.3571 12.5935 53.2127 11.6658 50 11.6667C49.1159 11.6667 48.2681 12.0179 47.643 12.643C47.0178 13.2681 46.6666 14.116 46.6666 15C46.6666 15.8841 47.0178 16.7319 47.643 17.357C48.2681 17.9822 49.1159 18.3334 50 18.3334C52.6521 18.3334 55.1957 19.3869 57.071 21.2623C58.9464 23.1377 60 25.6812 60 28.3334C59.9953 30.0842 59.531 31.803 58.6535 33.3181C57.7761 34.8332 56.5162 36.0913 55 36.9667C54.5058 37.2518 54.093 37.6589 53.8012 38.1492C53.5094 38.6394 53.3483 39.1964 53.3333 39.7667C53.3194 40.3326 53.4498 40.8927 53.7122 41.3942C53.9746 41.8958 54.3605 42.3222 54.8333 42.6334L56.1333 43.5L56.5666 43.7334C60.5846 45.6391 63.9743 48.6533 66.3366 52.4211C68.6988 56.1888 69.9351 60.5531 69.9 65C69.9 65.8841 70.2512 66.7319 70.8763 67.3571C71.5014 67.9822 72.3493 68.3334 73.2333 68.3334C74.1174 68.3334 74.9652 67.9822 75.5903 67.3571C76.2155 66.7319 76.5666 65.8841 76.5666 65C76.5939 59.8848 75.3127 54.8475 72.8449 50.3669C70.377 45.8863 66.8045 42.1111 62.4666 39.4Z" fill="#009AF2"/>
</svg>
