<svg width="80" height="80" viewBox="0 0 80 80" fill="none" xmlns="http://www.w3.org/2000/svg">
<path d="M63.3333 26.6667H60V16.6667C60 14.0146 58.9464 11.471 57.0711 9.59568C55.1957 7.72032 52.6522 6.66675 50 6.66675H16.6667C14.0145 6.66675 11.471 7.72032 9.5956 9.59568C7.72024 11.471 6.66667 14.0146 6.66667 16.6667V56.6667C6.66996 57.3248 6.86796 57.9672 7.23574 58.513C7.60352 59.0587 8.12461 59.4833 8.73334 59.7334C9.12894 59.92 9.56275 60.0113 10 60.0001C10.4387 60.0026 10.8736 59.9185 11.2797 59.7527C11.6858 59.5868 12.0552 59.3424 12.3667 59.0334L21.7333 49.6334H26.6667V54.4334C26.6667 57.0856 27.7202 59.6291 29.5956 61.5045C31.471 63.3798 34.0145 64.4334 36.6667 64.4334H59.7333L67.6333 72.3667C67.9448 72.6757 68.3142 72.9201 68.7203 73.086C69.1264 73.2519 69.5613 73.336 70 73.3334C70.4373 73.3447 70.8711 73.2533 71.2667 73.0667C71.8754 72.8167 72.3965 72.392 72.7643 71.8463C73.132 71.3006 73.3301 70.6582 73.3333 70.0001V36.6667C73.3333 34.0146 72.2798 31.471 70.4044 29.5957C68.529 27.7203 65.9855 26.6667 63.3333 26.6667ZM26.6667 36.6667V42.9667H20.3667C19.928 42.9642 19.4931 43.0483 19.087 43.2142C18.6809 43.3801 18.3115 43.6245 18 43.9334L13.3333 48.6334V16.6667C13.3333 15.7827 13.6845 14.9348 14.3096 14.3097C14.9348 13.6846 15.7826 13.3334 16.6667 13.3334H50C50.8841 13.3334 51.7319 13.6846 52.357 14.3097C52.9822 14.9348 53.3333 15.7827 53.3333 16.6667V26.6667H36.6667C34.0145 26.6667 31.471 27.7203 29.5956 29.5957C27.7202 31.471 26.6667 34.0146 26.6667 36.6667ZM66.6667 61.9667L63.3333 58.6334C63.0246 58.3185 62.6565 58.0679 62.2502 57.8962C61.844 57.7246 61.4077 57.6352 60.9667 57.6334H36.6667C35.7826 57.6334 34.9348 57.2822 34.3097 56.6571C33.6845 56.032 33.3333 55.1841 33.3333 54.3001V36.6667C33.3333 35.7827 33.6845 34.9348 34.3097 34.3097C34.9348 33.6846 35.7826 33.3334 36.6667 33.3334H63.3333C64.2174 33.3334 65.0652 33.6846 65.6904 34.3097C66.3155 34.9348 66.6667 35.7827 66.6667 36.6667V61.9667Z" fill="#005A8D"/>
</svg>
