<svg width="60" height="60" viewBox="0 0 60 60" fill="none" xmlns="http://www.w3.org/2000/svg">
<path d="M50.275 43.725L37.5 21.825V10H40C40.663 10 41.2989 9.73661 41.7678 9.26777C42.2366 8.79893 42.5 8.16304 42.5 7.5C42.5 6.83696 42.2366 6.20107 41.7678 5.73223C41.2989 5.26339 40.663 5 40 5H20C19.337 5 18.7011 5.26339 18.2322 5.73223C17.7634 6.20107 17.5 6.83696 17.5 7.5C17.5 8.16304 17.7634 8.79893 18.2322 9.26777C18.7011 9.73661 19.337 10 20 10H22.5V21.825L9.725 43.725C9.06136 44.8643 8.70978 46.1584 8.70572 47.4769C8.70166 48.7954 9.04526 50.0916 9.70187 51.235C10.3585 52.3784 11.3049 53.3284 12.4457 53.9894C13.5866 54.6504 14.8815 54.999 16.2 55H43.7C45.0185 54.999 46.3134 54.6504 47.4543 53.9894C48.5951 53.3284 49.5415 52.3784 50.1981 51.235C50.8547 50.0916 51.1983 48.7954 51.1943 47.4769C51.1902 46.1584 50.8386 44.8643 50.175 43.725H50.275ZM27.15 23.725C27.3705 23.3537 27.4911 22.9317 27.5 22.5V10H32.5V22.5C32.5046 22.9402 32.6253 23.3714 32.85 23.75L35 27.5H25L27.15 23.725ZM45.95 48.725C45.7319 49.1028 45.4186 49.417 45.0415 49.6363C44.6643 49.8556 44.2363 49.9724 43.8 49.975H16.3C15.8637 49.9724 15.4357 49.8556 15.0585 49.6363C14.6814 49.417 14.3681 49.1028 14.15 48.725C13.9306 48.345 13.8151 47.9138 13.8151 47.475C13.8151 47.0362 13.9306 46.605 14.15 46.225L22.075 32.5H37.95L45.95 46.25C46.1694 46.63 46.2849 47.0612 46.2849 47.5C46.2849 47.9388 46.1694 48.37 45.95 48.75V48.725ZM25 37.5C24.5055 37.5 24.0222 37.6466 23.6111 37.9213C23.1999 38.196 22.8795 38.5865 22.6903 39.0433C22.5011 39.5001 22.4516 40.0028 22.548 40.4877C22.6445 40.9727 22.8826 41.4181 23.2322 41.7678C23.5819 42.1174 24.0273 42.3555 24.5123 42.452C24.9972 42.5484 25.4999 42.4989 25.9567 42.3097C26.4135 42.1205 26.804 41.8 27.0787 41.3889C27.3534 40.9778 27.5 40.4945 27.5 40C27.5 39.337 27.2366 38.7011 26.7678 38.2322C26.2989 37.7634 25.663 37.5 25 37.5ZM35 40C34.5055 40 34.0222 40.1466 33.6111 40.4213C33.1999 40.696 32.8795 41.0865 32.6903 41.5433C32.5011 42.0001 32.4516 42.5028 32.548 42.9877C32.6445 43.4727 32.8826 43.9181 33.2322 44.2678C33.5819 44.6174 34.0273 44.8555 34.5123 44.952C34.9972 45.0484 35.4999 44.9989 35.9567 44.8097C36.4135 44.6205 36.804 44.3 37.0787 43.8889C37.3534 43.4778 37.5 42.9945 37.5 42.5C37.5 41.837 37.2366 41.2011 36.7678 40.7322C36.2989 40.2634 35.663 40 35 40Z" fill="#009AF2"/>
</svg>
