<svg width="60" height="60" viewBox="0 0 60 60" fill="none" xmlns="http://www.w3.org/2000/svg">
<path d="M55 40H49.55C49.8411 39.1983 49.9932 38.3529 50 37.5V25C50 23.0109 49.2098 21.1032 47.8033 19.6967C46.3968 18.2902 44.4891 17.5 42.5 17.5H27.5C25.5109 17.5 23.6032 18.2902 22.1967 19.6967C20.7902 21.1032 20 23.0109 20 25V37.5C20.0068 38.3529 20.1589 39.1983 20.45 40H17.5C16.837 40 16.2011 39.7366 15.7322 39.2678C15.2634 38.7989 15 38.163 15 37.5V12.5C15 10.5109 14.2098 8.60322 12.8033 7.1967C11.3968 5.79018 9.48912 5 7.5 5H5C4.33696 5 3.70107 5.26339 3.23223 5.73223C2.76339 6.20107 2.5 6.83696 2.5 7.5C2.5 8.16304 2.76339 8.79893 3.23223 9.26777C3.70107 9.73661 4.33696 10 5 10H7.5C8.16304 10 8.79893 10.2634 9.26777 10.7322C9.73661 11.2011 10 11.837 10 12.5V37.5C10.0092 39.1422 10.5572 40.736 11.5598 42.0367C12.5624 43.3374 13.9642 44.273 15.55 44.7C15.0896 45.8264 14.9101 47.0478 15.0272 48.259C15.1442 49.4702 15.5541 50.6348 16.2217 51.6521C16.8892 52.6695 17.7943 53.5092 18.8587 54.0988C19.9232 54.6883 21.1152 55.01 22.3317 55.0361C23.5483 55.0621 24.7529 54.7918 25.8417 54.2484C26.9304 53.705 27.8706 52.9049 28.5811 51.917C29.2916 50.9291 29.7511 49.7832 29.9199 48.5782C30.0887 47.3731 29.9617 46.1451 29.55 45H37.95C37.5388 46.1328 37.4067 47.3481 37.5648 48.5428C37.7229 49.7375 38.1666 50.8765 38.8583 51.8634C39.55 52.8503 40.4693 53.6559 41.5384 54.2122C42.6075 54.7684 43.7949 55.0588 45 55.0588C46.2051 55.0588 47.3925 54.7684 48.4616 54.2122C49.5307 53.6559 50.45 52.8503 51.1417 51.8634C51.8334 50.8765 52.2771 49.7375 52.4352 48.5428C52.5933 47.3481 52.4612 46.1328 52.05 45H55C55.663 45 56.2989 44.7366 56.7678 44.2678C57.2366 43.7989 57.5 43.163 57.5 42.5C57.5 41.837 57.2366 41.2011 56.7678 40.7322C56.2989 40.2634 55.663 40 55 40ZM22.5 50C22.0055 50 21.5222 49.8534 21.1111 49.5787C20.7 49.304 20.3795 48.9135 20.1903 48.4567C20.0011 47.9999 19.9516 47.4972 20.048 47.0123C20.1445 46.5273 20.3826 46.0819 20.7322 45.7322C21.0819 45.3826 21.5273 45.1445 22.0123 45.048C22.4972 44.9516 22.9999 45.0011 23.4567 45.1903C23.9135 45.3795 24.304 45.7 24.5787 46.1111C24.8534 46.5222 25 47.0055 25 47.5C25 48.163 24.7366 48.7989 24.2678 49.2678C23.7989 49.7366 23.163 50 22.5 50ZM27.5 40C26.837 40 26.2011 39.7366 25.7322 39.2678C25.2634 38.7989 25 38.163 25 37.5V25C25 24.337 25.2634 23.7011 25.7322 23.2322C26.2011 22.7634 26.837 22.5 27.5 22.5H42.5C43.163 22.5 43.7989 22.7634 44.2678 23.2322C44.7366 23.7011 45 24.337 45 25V37.5C45 38.163 44.7366 38.7989 44.2678 39.2678C43.7989 39.7366 43.163 40 42.5 40H27.5ZM45 50C44.5055 50 44.0222 49.8534 43.6111 49.5787C43.2 49.304 42.8795 48.9135 42.6903 48.4567C42.5011 47.9999 42.4516 47.4972 42.548 47.0123C42.6445 46.5273 42.8826 46.0819 43.2322 45.7322C43.5819 45.3826 44.0273 45.1445 44.5123 45.048C44.9972 44.9516 45.4999 45.0011 45.9567 45.1903C46.4135 45.3795 46.804 45.7 47.0787 46.1111C47.3534 46.5222 47.5 47.0055 47.5 47.5C47.5 48.163 47.2366 48.7989 46.7678 49.2678C46.2989 49.7366 45.663 50 45 50Z" fill="#009AF2"/>
</svg>
