<svg width="60" height="60" viewBox="0 0 60 60" fill="none" xmlns="http://www.w3.org/2000/svg">
<path d="M32.5 25H27.5C26.837 25 26.2011 25.2634 25.7322 25.7322C25.2634 26.2011 25 26.837 25 27.5C25 28.163 25.2634 28.7989 25.7322 29.2678C26.2011 29.7366 26.837 30 27.5 30H32.5C33.163 30 33.7989 29.7366 34.2678 29.2678C34.7366 28.7989 35 28.163 35 27.5C35 26.837 34.7366 26.2011 34.2678 25.7322C33.7989 25.2634 33.163 25 32.5 25ZM45 25C44.9928 22.7886 44.2528 20.642 42.8958 18.8959C41.5387 17.1498 39.6412 15.9028 37.5 15.35V12.5C37.5 10.5109 36.7098 8.60322 35.3033 7.1967C33.8968 5.79018 31.9891 5 30 5C28.0109 5 26.1032 5.79018 24.6967 7.1967C23.2902 8.60322 22.5 10.5109 22.5 12.5V15.35C20.3588 15.9028 18.4613 17.1498 17.1042 18.8959C15.7472 20.642 15.0072 22.7886 15 25C12.3478 25 9.8043 26.0536 7.92893 27.9289C6.05357 29.8043 5 32.3478 5 35V42.5C5 44.4891 5.79018 46.3968 7.1967 47.8033C8.60322 49.2098 10.5109 50 12.5 50H15.45C15.9658 51.4589 16.9202 52.7225 18.1823 53.6177C19.4445 54.5128 20.9526 54.9957 22.5 55H37.5C39.0474 54.9957 40.5555 54.5128 41.8177 53.6177C43.0798 52.7225 44.0342 51.4589 44.55 50H47.5C49.4891 50 51.3968 49.2098 52.8033 47.8033C54.2098 46.3968 55 44.4891 55 42.5V35C55 32.3478 53.9464 29.8043 52.0711 27.9289C50.1957 26.0536 47.6522 25 45 25ZM15 45H12.5C11.837 45 11.2011 44.7366 10.7322 44.2678C10.2634 43.7989 10 43.163 10 42.5V35C10 33.6739 10.5268 32.4021 11.4645 31.4645C12.4021 30.5268 13.6739 30 15 30V45ZM27.5 12.5C27.5 11.837 27.7634 11.2011 28.2322 10.7322C28.7011 10.2634 29.337 10 30 10C30.663 10 31.2989 10.2634 31.7678 10.7322C32.2366 11.2011 32.5 11.837 32.5 12.5V15H27.5V12.5ZM40 47.5C40 48.163 39.7366 48.7989 39.2678 49.2678C38.7989 49.7366 38.163 50 37.5 50H22.5C21.837 50 21.2011 49.7366 20.7322 49.2678C20.2634 48.7989 20 48.163 20 47.5V45C20 43.6739 20.5268 42.4021 21.4645 41.4645C22.4021 40.5268 23.6739 40 25 40H35C36.3261 40 37.5979 40.5268 38.5355 41.4645C39.4732 42.4021 40 43.6739 40 45V47.5ZM40 36.4C38.49 35.4911 36.7624 35.0074 35 35H25C23.2376 35.0074 21.51 35.4911 20 36.4V25C20 23.6739 20.5268 22.4021 21.4645 21.4645C22.4021 20.5268 23.6739 20 25 20H35C36.3261 20 37.5979 20.5268 38.5355 21.4645C39.4732 22.4021 40 23.6739 40 25V36.4ZM50 42.5C50 43.163 49.7366 43.7989 49.2678 44.2678C48.7989 44.7366 48.163 45 47.5 45H45V30C46.3261 30 47.5979 30.5268 48.5355 31.4645C49.4732 32.4021 50 33.6739 50 35V42.5Z" fill="#009AF2"/>
</svg>
