<svg width="60" height="60" viewBox="0 0 60 60" fill="none" xmlns="http://www.w3.org/2000/svg">
<path d="M47.5 5H12.5C10.5109 5 8.60322 5.79018 7.1967 7.1967C5.79018 8.60322 5 10.5109 5 12.5V37.5C5 39.4891 5.79018 41.3968 7.1967 42.8033C8.60322 44.2098 10.5109 45 12.5 45H20V50H12.5C11.837 50 11.2011 50.2634 10.7322 50.7322C10.2634 51.2011 10 51.837 10 52.5C10 53.163 10.2634 53.7989 10.7322 54.2678C11.2011 54.7366 11.837 55 12.5 55H47.5C48.163 55 48.7989 54.7366 49.2678 54.2678C49.7366 53.7989 50 53.163 50 52.5C50 51.837 49.7366 51.2011 49.2678 50.7322C48.7989 50.2634 48.163 50 47.5 50H40V45H47.5C49.4891 45 51.3968 44.2098 52.8033 42.8033C54.2098 41.3968 55 39.4891 55 37.5V12.5C55 10.5109 54.2098 8.60322 52.8033 7.1967C51.3968 5.79018 49.4891 5 47.5 5ZM35 50H25V45H35V50ZM50 37.5C50 38.163 49.7366 38.7989 49.2678 39.2678C48.7989 39.7366 48.163 40 47.5 40H12.5C11.837 40 11.2011 39.7366 10.7322 39.2678C10.2634 38.7989 10 38.163 10 37.5V35H50V37.5ZM50 30H10V12.5C10 11.837 10.2634 11.2011 10.7322 10.7322C11.2011 10.2634 11.837 10 12.5 10H47.5C48.163 10 48.7989 10.2634 49.2678 10.7322C49.7366 11.2011 50 11.837 50 12.5V30Z" fill="#009AF2"/>
</svg>
